<?xml version="1.0" encoding="UTF-8"?>
<svg version="1.1" xmlns="http://www.w3.org/2000/svg" width="945" height="721">
<path d="M0 0 C311.85 0 623.7 0 945 0 C945 237.93 945 475.86 945 721 C633.15 721 321.3 721 0 721 C0 483.07 0 245.14 0 0 Z " fill="#FEFEFE" transform="translate(0,0)"/>
<path d="M0 0 C43.56 0 87.12 0 132 0 C132 2.31 132 4.62 132 7 C130.69546875 7.17015625 129.3909375 7.3403125 128.046875 7.515625 C103.22032679 10.89479406 85.40112248 19.95103668 67 37 C65.43927664 38.39781957 63.87674293 39.79362016 62.3125 41.1875 C57.39753145 45.60943095 52.56655361 50.11819077 47.73950195 54.63549805 C43.15190928 58.92849052 38.54332437 63.19765647 33.92138672 67.45361328 C29.69964093 71.34495035 25.5046641 75.26434054 21.3125 79.1875 C14.8621247 85.21934886 8.32793642 91.14880701 1.73046875 97.01953125 C-4.25505173 102.36977261 -10.11785296 107.8424221 -15.96630859 113.34130859 C-21.93101411 118.94630513 -27.95484521 124.48194317 -34 130 C-35.01857718 130.93451665 -36.03680052 131.86941912 -37.0546875 132.8046875 C-45.59942517 140.65554639 -54.14792838 148.49498276 -63 156 C-61.32252546 160.03182477 -58.5317981 163.06919308 -55.6875 166.3125 C-55.15697021 166.92424072 -54.62644043 167.53598145 -54.07983398 168.16625977 C-52.95634475 169.46099754 -51.83105854 170.75417791 -50.70410156 172.04589844 C-49.05610989 173.93565851 -47.41370519 175.8300968 -45.7734375 177.7265625 C-43.61821611 180.21817828 -41.4606587 182.70773173 -39.30078125 185.1953125 C-37.06540916 187.77034417 -34.83393864 190.34868046 -32.60546875 192.9296875 C-27.86721528 198.41410102 -23.12826311 203.88899211 -18.25 209.25 C-14.42168168 213.46953333 -10.83265413 217.85269142 -7.25 222.28125 C-4.35524289 225.77908151 -1.30410461 229.11785404 1.75390625 232.47265625 C4.06187598 235.06962393 6.25555863 237.73404013 8.4375 240.4375 C11.51336588 244.24087503 14.68753166 247.90082652 18 251.5 C22.11378909 255.9698512 25.97087297 260.59044893 29.78515625 265.31640625 C31.95632827 267.94708557 34.20241357 270.47942424 36.5 273 C39.59555196 276.39598682 42.55151207 279.86171531 45.4375 283.4375 C48.51336588 287.24087503 51.68753166 290.90082652 55 294.5 C59.01529746 298.86686729 62.79137958 303.36811827 66.51953125 307.98046875 C73.76841325 316.80469834 81.34841911 325.37222711 89.0390625 333.8125 C90.26911146 335.18466617 91.47638103 336.57797887 92.6484375 338 C105.6626696 353.74404664 124.82426496 366.48794882 145.3125 369.0625 C151.89473684 369.89473684 151.89473684 369.89473684 153 371 C153 373.31 153 375.62 153 378 C98.22 378 43.44 378 -13 378 C-13 375.36 -13 372.72 -13 370 C-12.31035156 369.98582031 -11.62070312 369.97164063 -10.91015625 369.95703125 C-4.05685147 369.60919548 1.57547313 368.42307575 7 364 C9.41955819 360.14576788 9.70063983 356.43481912 9 352 C6.23465406 343.10145665 -0.45711197 336.4891742 -6.51611328 329.68994141 C-8.64408756 327.2664735 -10.66563251 324.76223254 -12.6875 322.25 C-15.53458501 318.7411601 -18.45812552 315.34133363 -21.5 312 C-25.34558741 307.77583145 -28.96730971 303.41046927 -32.5625 298.97265625 C-36.77122483 293.83990049 -41.11906527 288.82654106 -45.45166016 283.79833984 C-47.97292926 280.86997841 -50.48615649 277.93473555 -53 275 C-56.01027043 271.48703601 -59.02129021 267.97472375 -62.03515625 264.46484375 C-67.33209069 258.29418816 -72.60940047 252.10804486 -77.85571289 245.89428711 C-81.2191397 241.91396095 -84.60511609 237.95351497 -88 234 C-93.22623058 227.91268171 -98.41692626 221.79619471 -103.59277344 215.66601562 C-106.1222335 212.67138768 -108.65511128 209.6796513 -111.1875 206.6875 C-112.11850353 205.58725138 -113.04949447 204.48699211 -113.98046875 203.38671875 C-114.64691406 202.59910156 -115.31335938 201.81148437 -116 201 C-117.0828125 201.433125 -117.0828125 201.433125 -118.1875 201.875 C-120.79166667 202.91666667 -123.39583333 203.95833333 -126 205 C-120.77286616 212.01386322 -115.07786275 218.58164351 -109.33203125 225.16796875 C-105.883371 229.12358107 -102.48409625 233.11897209 -99.11450195 237.14208984 C-96.69238525 240.02769528 -94.23380463 242.87058451 -91.71875 245.67578125 C-91.17162354 246.29316162 -90.62449707 246.91054199 -90.06079102 247.54663086 C-89.01090976 248.72914864 -87.95203051 249.90376462 -86.88256836 251.06860352 C-77.71750667 261.45670292 -79.52783923 277.96508769 -80 291 C-81.45919472 311.85930811 -92.46341166 331.52908901 -107 346 C-107.6290625 346.67675781 -108.258125 347.35351562 -108.90625 348.05078125 C-120.38604829 360.26160443 -138.03874421 369.27633106 -154 374 C-154.61037109 374.18868652 -155.22074219 374.37737305 -155.84960938 374.57177734 C-191.77902569 385.61706442 -228.42260186 385.30180321 -265.62870693 385.20278788 C-271.21529574 385.19010652 -276.80188778 385.18909654 -282.38848877 385.18673706 C-292.92028534 385.18057258 -303.45203934 385.16423148 -313.98381734 385.14403808 C-325.99390568 385.12152039 -338.00399628 385.11064615 -350.01410055 385.10064721 C-374.67609044 385.07985951 -399.33804281 385.04478377 -424 385 C-424 382.36 -424 379.72 -424 377 C-423.14019531 376.98582031 -422.28039062 376.97164063 -421.39453125 376.95703125 C-409.46976708 376.47587937 -397.70234771 373.70234771 -389 365 C-380.75080407 355.36511237 -380.54784005 342.32888769 -380.48828125 330.265625 C-380.47138765 328.89270474 -380.45323134 327.51979949 -380.43388367 326.14691162 C-380.38688415 322.57638246 -380.35675437 319.00591418 -380.33044434 315.43518066 C-380.3003824 311.77437309 -380.25394203 308.11377458 -380.20898438 304.453125 C-380.12352301 297.30220399 -380.0559274 290.15121812 -380 283 C-381.87931172 283.31112228 -383.7585238 283.62284645 -385.63769531 283.93481445 C-386.6841925 284.10833939 -387.7306897 284.28186432 -388.80889893 284.46064758 C-429.14687711 291.27847802 -473.54676715 302.17695504 -500 336 C-502.50882991 339.91136766 -504.81033692 343.90230253 -507 348 C-509.42813249 343.14373502 -506.513994 335.75704226 -505.06640625 330.80859375 C-497.62897708 309.83452879 -482.84121552 295.12470874 -464 284 C-463.36143066 283.6189209 -462.72286133 283.2378418 -462.06494141 282.84521484 C-422.08394266 259.36875649 -372.47244339 252.98487577 -327.65942383 244.03222656 C-316.42973031 241.78048274 -305.23248293 239.42694787 -294.0703125 236.859375 C-292.50753067 236.50061783 -292.50753067 236.50061783 -290.91317749 236.13461304 C-253.91006043 227.51360943 -217.27521708 214.37893046 -184 196 C-183.34386719 195.64019043 -182.68773437 195.28038086 -182.01171875 194.90966797 C-169.29172325 187.90774498 -157.49848392 179.85268849 -146 171 C-145.42958984 170.56252441 -144.85917969 170.12504883 -144.27148438 169.67431641 C-137.41696399 164.40607438 -130.77999446 159.02587031 -124.4140625 153.16796875 C-121.90476128 150.91447008 -119.31758374 148.79838854 -116.6875 146.6875 C-111.23128595 142.274613 -106.11384549 137.55528972 -100.984375 132.7734375 C-96.43829437 128.53590157 -91.75269974 124.47655824 -87 120.47265625 C-78.71403315 113.47109258 -70.77888709 106.16153233 -62.91015625 98.6953125 C-59.1222608 95.10354526 -55.26639744 91.59599367 -51.37109375 88.12109375 C-48.64615884 85.68346664 -45.944925 83.2206764 -43.25 80.75 C-42.75491943 80.29616943 -42.25983887 79.84233887 -41.74975586 79.37475586 C-38.95914429 76.81198565 -36.17866703 74.23869412 -33.40625 71.65625 C-32.79749023 71.08938477 -32.18873047 70.52251953 -31.56152344 69.93847656 C-30.39701347 68.85306539 -29.2335161 67.76656626 -28.07128906 66.67871094 C-25.12838272 63.9344377 -22.14921855 61.24609588 -19.109375 58.609375 C-14.79527748 54.85447399 -10.64426548 50.94044915 -6.5 47 C-2.30263778 43.00906543 1.90315152 39.05420686 6.28515625 35.265625 C9.0185325 32.8936925 11.56710629 30.49407931 13.9375 27.75 C14.50339844 27.10546875 15.06929687 26.4609375 15.65234375 25.796875 C18.08058464 22.55922048 18.11316687 19.71384927 18.0625 15.8125 C18.04896484 14.46091797 18.04896484 14.46091797 18.03515625 13.08203125 C18.02355469 12.39496094 18.01195312 11.70789063 18 11 C13.1135933 9.01902431 8.49745844 8.59025029 3.29296875 8.24609375 C1 8 1 8 0 7 C0 4.69 0 2.38 0 0 Z " fill="#B28733" transform="translate(661,62)"/>
<path d="M0 0 C24.94903501 -0.04686799 49.89806336 -0.08206102 74.84713364 -0.10362434 C86.43326038 -0.11390584 98.01935965 -0.1279059 109.60546875 -0.15087891 C119.7122583 -0.17090903 129.81902795 -0.18373911 139.9258368 -0.18817699 C145.26971291 -0.19076818 150.6135321 -0.19679228 155.95738983 -0.21146011 C161.00360286 -0.22519666 166.04973639 -0.22919075 171.09596634 -0.22621536 C172.9323355 -0.22675843 174.76870778 -0.23063896 176.60506058 -0.23841095 C207.840312 -0.36394427 242.11656555 2.97559267 270 18 C271.00675781 18.50917969 272.01351563 19.01835937 273.05078125 19.54296875 C286.04448031 26.51309871 297.1171105 36.55643627 305 49 C305.46535156 49.66128906 305.93070313 50.32257812 306.41015625 51.00390625 C315.079426 63.70292829 317.38630456 78.33298294 317.25 93.375 C317.24178223 94.4769873 317.23356445 95.57897461 317.22509766 96.71435547 C316.88800185 121.22085815 308.06588325 140.25100833 291.3125 158.0625 C284.61037713 164.57991869 271.65410244 176 262 176 C262.79410076 178.13400682 262.79410076 178.13400682 264.71484375 178.7109375 C265.44832031 178.93007812 266.18179687 179.14921875 266.9375 179.375 C271.27497105 180.71278916 275.33096092 182.41640608 279.4453125 184.328125 C286.13199994 186.08670335 291.45223958 183.06670405 297.0625 179.8125 C297.83126465 179.37542725 298.6000293 178.93835449 299.39208984 178.48803711 C319.40102624 166.96284185 338.68053013 154.05186609 357 140 C357.66 140.33 358.32 140.66 359 141 C358.15179687 141.72703125 357.30359375 142.4540625 356.4296875 143.203125 C355.87015381 143.68273682 355.31062012 144.16234863 354.73413086 144.65649414 C353.47717795 145.73385877 352.22017799 146.8111685 350.96313477 147.88842773 C347.77773215 150.61837748 344.59293455 153.34902212 341.41015625 156.08203125 C338.51011822 158.5719013 335.60737191 161.05858029 332.70263672 163.54296875 C331.58374887 164.50045694 330.46556287 165.45876601 329.34814453 166.41796875 C321.07581512 173.51492663 312.63946827 180.3550551 304 187 C303.25331055 187.5779834 302.50662109 188.1559668 301.73730469 188.75146484 C289.8997117 197.89081836 277.83125701 206.31684611 265 214 C264.20609863 214.48001465 263.41219727 214.9600293 262.59423828 215.45458984 C251.65881875 222.02900355 240.42318996 227.89414235 228.9375 233.4375 C228.3306134 233.73082214 227.72372681 234.02414429 227.09844971 234.32635498 C182.43743764 255.83642685 134.38723521 267.36935236 86 277 C84.14972287 277.37231279 82.29946005 277.74469668 80.44921875 278.1171875 C76.61795454 278.88288231 72.78024067 279.60633683 68.9375 280.3125 C53.75726612 283.14495261 38.59053477 286.06253669 23.5625 289.625 C22.74177002 289.81884277 21.92104004 290.01268555 21.07543945 290.21240234 C15.31751815 291.605153 9.65867472 293.25018269 4 295 C2.6847937 295.4029126 2.6847937 295.4029126 1.34301758 295.81396484 C-25.60678326 304.11181362 -50.9704789 315.14218223 -73 333 C-73 328.99959378 -71.13058932 326.66613576 -69 323.4375 C-68.59136719 322.81198242 -68.18273437 322.18646484 -67.76171875 321.54199219 C-61.66206113 312.3311315 -54.51701407 304.07778599 -47 296 C-46.38769531 295.33355469 -45.77539062 294.66710937 -45.14453125 293.98046875 C-24.31802304 272.17702412 4.4578665 257.08694193 31.75 245.0625 C32.41757324 244.76786865 33.08514648 244.4732373 33.77294922 244.16967773 C36.82313125 242.84929166 39.76581036 241.75038487 43 241 C43.07012235 214.70481415 43.12300403 188.40964235 43.15543652 162.11438179 C43.17089663 149.90467323 43.19196986 137.69502281 43.22631836 125.48535156 C43.25624683 114.84175892 43.27558122 104.1982084 43.28226548 93.55457485 C43.28617187 87.92035449 43.29533478 82.2862546 43.31719017 76.65207291 C43.33760969 71.34486051 43.34382272 66.03781779 43.33932304 60.73056984 C43.3401458 58.78679163 43.34607874 56.84300752 43.35761642 54.89926338 C43.4330524 41.53062406 43.25576721 29.59836202 34 19 C24.70979443 10.57312666 12.13994911 8.43747564 0 8 C0 5.36 0 2.72 0 0 Z " fill="#091C2E" transform="translate(237,10)"/>
<path d="M0 0 C3.03293211 2.19704021 5.29137589 4.96488411 7.66015625 7.83203125 C8.18609375 8.45722656 8.71203125 9.08242188 9.25390625 9.7265625 C10.34406049 11.02324477 11.43144645 12.32225923 12.51611328 13.62353516 C14.41938943 15.90523361 16.33792579 18.17363179 18.25976562 20.43969727 C19.15275652 21.49417611 20.04338033 22.55066403 20.93164062 23.60913086 C23.37247426 26.51314006 25.85037839 29.37455225 28.3828125 32.19921875 C28.929375 32.81603516 29.4759375 33.43285156 30.0390625 34.06835938 C31.08809147 35.25009683 32.14616638 36.42389153 33.21484375 37.58789062 C42.38014402 47.97605441 40.56982348 64.48444044 40.09765625 77.51953125 C38.63846153 98.37883936 27.63424459 118.04862026 13.09765625 132.51953125 C12.46859375 133.19628906 11.83953125 133.87304688 11.19140625 134.5703125 C-0.28839204 146.78113568 -17.94108796 155.79586231 -33.90234375 160.51953125 C-34.51271484 160.70821777 -35.12308594 160.8969043 -35.75195312 161.09130859 C-71.68136944 172.13659567 -108.32494561 171.82133446 -145.53105068 171.72231913 C-151.11763949 171.70963777 -156.70423153 171.70862779 -162.29083252 171.70626831 C-172.82262909 171.70010383 -183.35438309 171.68376273 -193.88616109 171.66356933 C-205.89624943 171.64105164 -217.90634003 171.6301774 -229.9164443 171.62017846 C-254.57843419 171.59939076 -279.24038656 171.56431502 -303.90234375 171.51953125 C-303.90234375 168.87953125 -303.90234375 166.23953125 -303.90234375 163.51953125 C-303.04253906 163.50535156 -302.18273437 163.49117187 -301.296875 163.4765625 C-289.36119496 162.99497018 -277.61912231 160.21555557 -268.90234375 151.51953125 C-260.26137641 141.60100154 -259.30517252 127.3441707 -259.29296875 114.80859375 C-259.27793509 113.46094836 -259.26119741 112.11332102 -259.24285889 110.76571655 C-259.1997527 107.27078258 -259.17931504 103.77609665 -259.16412354 100.28094482 C-259.14434392 96.69366111 -259.1024 93.1066376 -259.0625 89.51953125 C-258.98781571 82.51963159 -258.93715398 75.51975245 -258.90234375 68.51953125 C-257.01902344 68.22949219 -257.01902344 68.22949219 -255.09765625 67.93359375 C-253.4075345 67.67068592 -251.71743133 67.40765866 -250.02734375 67.14453125 C-249.20492187 67.01820313 -248.3825 66.891875 -247.53515625 66.76171875 C-243.32776466 66.10431381 -239.14671377 65.3872825 -234.97412109 64.53515625 C-229.54778711 63.42716343 -224.09602775 62.52586049 -218.62890625 61.64453125 C-217.58390961 61.47453613 -216.53891296 61.30454102 -215.46224976 61.12939453 C-212.15088845 60.59106931 -208.83913262 60.05521914 -205.52734375 59.51953125 C-202.22278756 58.98329102 -198.91831475 58.44653962 -195.61386108 57.90966797 C-193.568062 57.5774753 -191.52218931 57.24573547 -189.47622681 56.91455078 C-182.61468443 55.80290466 -175.75896278 54.66230109 -168.90234375 53.51953125 C-168.90234375 83.87953125 -168.90234375 114.23953125 -168.90234375 145.51953125 C-145.25932405 145.18721052 -145.25932405 145.18721052 -121.90234375 142.51953125 C-121.2263916 142.39739258 -120.55043945 142.27525391 -119.85400391 142.14941406 C-99.3378219 138.30233884 -79.09434505 128.60898145 -66.59375 111.328125 C-61.67683692 104.10684955 -57.8868505 96.75346686 -54.90234375 88.51953125 C-54.60714844 87.76414062 -54.31195313 87.00875 -54.0078125 86.23046875 C-50.05196333 75.51265081 -49.58998173 64.2122664 -49.6965332 52.8984375 C-49.71489252 50.88919387 -49.71704108 48.88041308 -49.71679688 46.87109375 C-49.75016098 39.36787705 -50.05442646 31.97612959 -50.90234375 24.51953125 C-49.44703776 23.79187826 -47.99172413 23.06424054 -46.53637695 22.33666992 C-45.26134485 21.69907126 -43.98644627 21.06120554 -42.71166992 20.4230957 C-39.80027216 18.96613366 -36.88762517 17.51226016 -33.96875 16.0703125 C-25.19892088 11.7289361 -16.55585675 7.15139769 -7.91015625 2.56933594 C-7.24757813 2.22290039 -6.585 1.87646484 -5.90234375 1.51953125 C-5.19650146 1.13482666 -4.49065918 0.75012207 -3.76342773 0.35375977 C-1.90234375 -0.48046875 -1.90234375 -0.48046875 0 0 Z " fill="#091C2F" transform="translate(540.90234375,275.48046875)"/>
<path d="M0 0 C48.70858696 0 48.70858696 0 62.8125 6.1875 C63.86920898 6.63923584 63.86920898 6.63923584 64.94726562 7.10009766 C71.2801812 9.92035992 76.73603332 13.47588001 82 18 C82.78761719 18.66515625 83.57523437 19.3303125 84.38671875 20.015625 C98.49202667 32.94748625 104.12700216 51.17435244 105.22265625 69.78125 C105.67308142 89.36495284 102.30092643 107.29838548 90 123 C89.45472656 123.71027344 88.90945313 124.42054688 88.34765625 125.15234375 C74.80278482 141.75676261 53.23567036 147.10918995 33 150 C22.11 150 11.22 150 0 150 C0 100.5 0 51 0 0 Z " fill="#FEFEFE" transform="translate(372,33)"/>
<path d="M0 0 C72.41818182 0 72.41818182 0 83.3046875 10.1484375 C89.61569687 16.92179188 92.55612034 23.11704409 92.375 32.375 C92.36484863 33.12378418 92.35469727 33.87256836 92.34423828 34.64404297 C92.08138273 44.01922447 89.82671731 50.4122178 83 57 C81.3719908 58.38026867 79.71956118 59.73561678 78 61 C78.64066406 61.3403125 79.28132813 61.680625 79.94140625 62.03125 C87.60823537 66.32741654 94.78834122 71.64078537 97.5625 80.4140625 C99.63199721 92.6462692 98.45909211 104.17333694 91.8125 114.8125 C85.57058673 122.79145947 74.81673055 127.62295054 65 129 C62.78526776 129.08351102 60.56835274 129.11783726 58.35205078 129.11352539 C56.37362183 129.11334412 56.37362183 129.11334412 54.35522461 129.11315918 C52.96858675 129.10812507 51.58194936 129.10295858 50.1953125 129.09765625 C48.92357178 129.09664917 47.65183105 129.09564209 46.34155273 129.09460449 C41.60269262 129.08938269 36.86384538 129.07542142 32.125 129.0625 C21.52375 129.041875 10.9225 129.02125 0 129 C0 86.43 0 43.86 0 0 Z " fill="#0A1B2E" transform="translate(48,493)"/>
<path d="M0 0 C0.48781989 1.49720822 0.96472363 2.99797364 1.4375 4.5 C1.70433594 5.3353125 1.97117187 6.170625 2.24609375 7.03125 C8.86047829 33.0775311 4.45549335 63.84192474 -8.1875 87.1875 C-17.62699744 102.5887853 -31.34776171 113.24797303 -48 120 C-48.89203125 120.37898438 -49.7840625 120.75796875 -50.703125 121.1484375 C-71.35369775 129.37156976 -94.29753966 128 -116 128 C-116 97.64 -116 67.28 -116 36 C-111.46953537 34.70558153 -107.10431757 33.53551074 -102.51953125 32.5546875 C-70.26816874 25.54260483 -39.60940119 16.14817125 -9.40649414 2.69165039 C-8.60332764 2.33707764 -7.80016113 1.98250488 -6.97265625 1.6171875 C-5.92476929 1.14708252 -5.92476929 1.14708252 -4.85571289 0.66748047 C-3 0 -3 0 0 0 Z " fill="#FEFEFD" transform="translate(488,293)"/>
<path d="M0 0 C6.93 0 13.86 0 21 0 C21.33 19.14 21.66 38.28 22 58 C32.15054543 47.1205013 32.15054543 47.1205013 42 36 C48.83558084 28.06640143 55.69432547 20.17077286 62.76953125 12.44921875 C65.46420114 9.490273 68.10050081 6.48412848 70.72265625 3.4609375 C71.45832299 2.61953273 72.20969387 1.79030613 73 1 C74.92667507 0.91251793 76.85651861 0.89302666 78.78515625 0.90234375 C79.95498047 0.90556641 81.12480469 0.90878906 82.33007812 0.91210938 C83.56177734 0.92048828 84.79347656 0.92886719 86.0625 0.9375 C87.91584961 0.94426758 87.91584961 0.94426758 89.80664062 0.95117188 C92.87114117 0.96300392 95.93554721 0.97948827 99 1 C96.03807422 5.7405156 92.67611105 9.66184652 88.8125 13.6875 C84.76526801 17.96546786 80.86840915 22.27706993 77.1875 26.875 C73.97366631 30.88788558 70.58570015 34.5242252 66.90234375 38.10546875 C63.7512826 41.2435892 60.89359365 44.62630337 58 48 C56.68895657 49.50127326 55.37649374 51.00130834 54.0625 52.5 C53.47597656 53.1703125 52.88945313 53.840625 52.28515625 54.53125 C51.86105469 55.0159375 51.43695312 55.500625 51 56 C52.46566417 60.35694704 54.7039871 63.42126711 57.5625 67 C60.98678719 71.34497401 64.25842621 75.73734688 67.375 80.3125 C70.73147594 85.22628639 74.21929305 90.00703619 77.8125 94.75 C82.61785165 101.09519235 87.26214784 107.53724297 91.81567383 114.06542969 C94.73463732 118.24340368 97.74492283 122.32079277 100.88525391 126.3359375 C102 128 102 128 102 130 C80.02298937 132.19143981 80.02298937 132.19143981 73.98046875 128.89990234 C70.76431518 125.88008373 68.94932695 122.05270473 67.078125 118.10888672 C65.15598585 114.34905022 62.60580899 111.03062385 60.125 107.625 C59.11353615 106.19084214 58.1031238 104.75594213 57.09375 103.3203125 C53.52754066 98.3044799 49.81999152 93.3986862 46.10498047 88.49267578 C42.54911452 83.78052758 39.15988118 78.98928607 36 74 C30.79684192 74.74796345 27.366951 78.22441356 24.16113281 82.16259766 C19.20311299 89.63115208 20.71645594 100.12543724 20.875 108.6875 C20.87694471 110.75716218 20.87438003 112.82683378 20.8671875 114.89648438 C20.85104594 119.93466943 20.92753231 124.95923245 21 130 C13.74 130 6.48 130 -1 130 C-1.02311867 113.19776128 -1.04097906 96.39552888 -1.05181217 79.59327793 C-1.05697518 71.79224164 -1.06401797 63.99121539 -1.07543945 56.19018555 C-1.08538615 49.39323687 -1.09185339 42.59629546 -1.09408849 35.79933971 C-1.09539563 32.19821869 -1.09848164 28.59711848 -1.10573006 24.9960041 C-1.11374364 20.98243398 -1.11399115 16.96890036 -1.11352539 12.95532227 C-1.11712067 11.75267227 -1.12071594 10.55002228 -1.12442017 9.31092834 C-1.1230455 8.22412781 -1.12167084 7.13732727 -1.12025452 6.01759338 C-1.12117631 5.06722482 -1.1220981 4.11685625 -1.12304783 3.13768864 C-1 1 -1 1 0 0 Z " fill="#A67C2B" transform="translate(505,492)"/>
<path d="M0 0 C11.49864112 8.88090664 16.35121797 20.69231823 18.31640625 34.7890625 C18.56110698 38.80660362 18.68180408 42.77671322 18.31640625 46.7890625 C17.31640625 47.7890625 17.31640625 47.7890625 14.5766449 47.90931702 C13.35308792 47.90709641 12.12953094 47.90487579 10.86889648 47.90258789 C9.85918289 47.90280693 9.85918289 47.90280693 8.82907104 47.9030304 C6.59434841 47.90233128 4.35970815 47.89453902 2.125 47.88671875 C0.57943263 47.88485456 -0.96613532 47.88343066 -2.51170349 47.88243103 C-6.58716452 47.8786059 -10.66259012 47.86877567 -14.73803711 47.85772705 C-18.89371257 47.84751282 -23.04939374 47.84293339 -27.20507812 47.83789062 C-35.36459962 47.82715339 -43.52409228 47.81007704 -51.68359375 47.7890625 C-51.22288071 49.38921592 -50.75704435 50.98789481 -50.2890625 52.5859375 C-50.03020264 53.47635742 -49.77134277 54.36677734 -49.50463867 55.28417969 C-47.26763398 62.10893976 -42.62331971 66.11682969 -36.68359375 69.7890625 C-30.0155237 73.04581857 -21.40629052 72.98787575 -14.37109375 70.7265625 C-9.50437708 68.5727815 -4.09225103 64.60637706 -1.68359375 59.7890625 C2.66504277 60.35351075 5.4946828 61.94334214 9.12890625 64.3515625 C10.10472656 64.99222656 11.08054687 65.63289062 12.0859375 66.29296875 C12.82199219 66.78667969 13.55804688 67.28039062 14.31640625 67.7890625 C13.48529046 73.70947988 10.60728868 76.80355309 6.31640625 80.7890625 C-5.76924046 89.89497218 -18.93400113 92.17452181 -33.68359375 90.7890625 C-37.24068905 90.16477431 -40.37565942 89.22353122 -43.68359375 87.7890625 C-44.36292969 87.510625 -45.04226562 87.2321875 -45.7421875 86.9453125 C-56.25887581 82.18922734 -64.22090203 74.55847706 -68.93359375 63.984375 C-69.95441035 61.27470742 -70.8478635 58.56083116 -71.68359375 55.7890625 C-71.90917969 55.12390625 -72.13476562 54.45875 -72.3671875 53.7734375 C-76.0098113 41.81558283 -73.59107225 28.82606498 -68.55859375 17.6640625 C-62.15350592 5.73602469 -51.93871594 -2.59687801 -39.0546875 -6.51953125 C-25.73190122 -9.25201465 -11.48548475 -7.48492264 0 0 Z " fill="#0C1D30" transform="translate(238.68359375,534.2109375)"/>
<path d="M0 0 C10.26830066 7.28272753 15.96251922 18.33993985 18.38671875 30.4609375 C18.38671875 36.4009375 18.38671875 42.3409375 18.38671875 48.4609375 C-4.38328125 48.4609375 -27.15328125 48.4609375 -50.61328125 48.4609375 C-47.74552161 58.97605617 -46.12748976 63.8258276 -37.58203125 69.90625 C-30.37468246 73.75196223 -21.42601828 73.92090873 -13.703125 71.578125 C-7.92042197 68.94407324 -4.38423 65.52194767 -0.61328125 60.4609375 C3.73535527 61.02538575 6.5649953 62.61521714 10.19921875 65.0234375 C11.17503906 65.66410156 12.15085937 66.30476562 13.15625 66.96484375 C13.89230469 67.45855469 14.62835937 67.95226562 15.38671875 68.4609375 C14.64439049 75.04910082 10.22161498 78.33926354 5.38671875 82.4609375 C-5.8591627 90.60804505 -19.10628735 92.63239047 -32.61328125 91.4609375 C-36.14240789 90.81292085 -39.30580592 89.83905222 -42.61328125 88.4609375 C-43.28359375 88.20570313 -43.95390625 87.95046875 -44.64453125 87.6875 C-54.7024784 83.33703873 -63.80401973 74.11003203 -68.05078125 64.05859375 C-73.98156432 48.00167253 -74.10659262 34.35101767 -67.328125 18.4453125 C-61.13120728 6.08600029 -52.05009588 -0.33511516 -39.61328125 -5.5390625 C-26.45074627 -9.36690037 -11.61022665 -6.83771196 0 0 Z " fill="#A67C2C" transform="translate(683.61328125,533.5390625)"/>
<path d="M0 0 C6.85363395 5.37565564 11.18540863 12.72700307 12.38079834 21.37976074 C12.62201532 25.61841436 12.53656907 29.84771755 12.4453125 34.08984375 C12.43409296 35.64209333 12.42556585 37.19436446 12.41958618 38.74664307 C12.39690369 42.79130882 12.33816623 46.83463875 12.2713623 50.87878418 C12.20948862 55.02187031 12.18247598 59.16517672 12.15234375 63.30859375 C12.08839553 71.40822722 11.98304717 79.50652687 11.859375 87.60546875 C5.589375 87.60546875 -0.680625 87.60546875 -7.140625 87.60546875 C-7.140625 83.97546875 -7.140625 80.34546875 -7.140625 76.60546875 C-7.78 77.30671875 -8.419375 78.00796875 -9.078125 78.73046875 C-17.20944666 86.77042725 -26.24673834 90.6595142 -37.640625 90.98046875 C-48.79017743 90.66639685 -57.40604774 87.03822616 -65.515625 79.35546875 C-70.25482357 71.33528656 -71.48238767 62.22067077 -69.63671875 53.12109375 C-67.1877721 44.78068114 -62.52376919 40.14722285 -55.0378418 36.01611328 C-44.9458791 31.10237262 -34.34026057 31.22235167 -23.390625 31.41796875 C-21.90365955 31.43305908 -20.4166791 31.44673971 -18.9296875 31.45898438 C-15.33301486 31.49160836 -11.73692027 31.54314405 -8.140625 31.60546875 C-8.43496722 29.66698009 -8.73726755 27.72969857 -9.04296875 25.79296875 C-9.21046631 24.71402344 -9.37796387 23.63507812 -9.55053711 22.5234375 C-10.30730017 18.78126454 -11.17427985 17.03939298 -14.140625 14.60546875 C-20.25128801 10.8440995 -26.03177724 9.64737113 -33.140625 10.60546875 C-39.92264972 12.67456104 -45.22490902 16.73189479 -49.140625 22.60546875 C-53.37385344 21.98501412 -56.66352795 20.50023316 -60.453125 18.54296875 C-61.52175781 17.99511719 -62.59039062 17.44726562 -63.69140625 16.8828125 C-64.49964844 16.46128906 -65.30789063 16.03976562 -66.140625 15.60546875 C-64.89326952 8.71382973 -59.4429099 3.21751545 -53.890625 -0.70703125 C-52.33022067 -1.64223184 -50.74586698 -2.53857564 -49.140625 -3.39453125 C-48.37621094 -3.80832031 -47.61179687 -4.22210937 -46.82421875 -4.6484375 C-32.38282326 -11.13463547 -13.03902211 -8.49439944 0 0 Z " fill="#0C1C2F" transform="translate(451.140625,534.39453125)"/>
<path d="M0 0 C7.73949103 5.31454731 12.60995538 12.50562723 14.64453125 21.6796875 C15.04684357 26.93402412 14.99522324 32.16918809 14.9375 37.43359375 C14.93189453 38.9453031 14.92762893 40.45701796 14.92463684 41.96873474 C14.9132628 45.91927527 14.88386126 49.86947717 14.8505249 53.81988525 C14.81966212 57.8622988 14.80609711 61.90476785 14.79101562 65.94726562 C14.75898303 73.85824452 14.7062775 81.76888468 14.64453125 89.6796875 C8.37453125 89.6796875 2.10453125 89.6796875 -4.35546875 89.6796875 C-4.35546875 86.0496875 -4.35546875 82.4196875 -4.35546875 78.6796875 C-5.55171875 79.7521875 -6.74796875 80.8246875 -7.98046875 81.9296875 C-17.7804186 90.44242852 -26.37404388 93.5842571 -39.33984375 93.08984375 C-47.80686448 92.44736525 -55.28815275 88.91067708 -60.95703125 82.578125 C-66.64202999 74.86050101 -68.23532385 67.1569839 -67.35546875 57.6796875 C-65.42898818 49.67202729 -61.37985284 43.97960078 -54.51171875 39.46875 C-43.75785494 33.60701276 -32.59102838 33.28044099 -20.66796875 33.4921875 C-19.17644592 33.50727305 -17.6849082 33.52095456 -16.19335938 33.53320312 C-12.58041387 33.56587593 -8.96804014 33.61744031 -5.35546875 33.6796875 C-5.63347389 31.75247381 -5.92356423 29.82700082 -6.21875 27.90234375 C-6.45911987 26.2937146 -6.45911987 26.2937146 -6.7043457 24.65258789 C-7.66731712 20.25584888 -8.95648468 18.6254737 -12.35546875 15.6796875 C-19.20581831 11.65007011 -26.42278042 11.70170442 -33.98046875 13.6171875 C-39.55292879 15.6435366 -42.83259758 20.10091489 -46.35546875 24.6796875 C-50.10892531 23.95997131 -53.21638844 22.34856548 -56.60546875 20.6171875 C-57.683125 20.06933594 -58.76078125 19.52148438 -59.87109375 18.95703125 C-60.6909375 18.53550781 -61.51078125 18.11398437 -62.35546875 17.6796875 C-61.36198866 10.42351013 -56.09578549 5.90118258 -50.60546875 1.4296875 C-36.29303288 -8.49143282 -15.09589915 -8.46171461 0 0 Z " fill="#A67C2B" transform="translate(894.35546875,532.3203125)"/>
<path d="M0 0 C7.03900094 5.7907052 10.98832393 12.57196637 13.50390625 21.26953125 C13.74441528 24.61056519 13.74441528 24.61056519 13.73095703 28.28466797 C13.73124908 28.9585405 13.73154114 29.63241302 13.73184204 30.32670593 C13.7304586 32.53434529 13.71494459 34.741639 13.69921875 36.94921875 C13.6954851 38.48763851 13.69263979 40.02606065 13.69064331 41.56448364 C13.68303454 45.59882255 13.66340997 49.63301573 13.64123535 53.66729736 C13.62071733 57.78989695 13.61162889 61.91252024 13.6015625 66.03515625 C13.58016126 74.11334786 13.54605889 82.19142139 13.50390625 90.26953125 C10.19142438 90.29841271 6.87897458 90.31628924 3.56640625 90.33203125 C2.62087891 90.34041016 1.67535156 90.34878906 0.70117188 90.35742188 C-0.64750977 90.36225586 -0.64750977 90.36225586 -2.0234375 90.3671875 C-3.27241821 90.37504272 -3.27241821 90.37504272 -4.54663086 90.38305664 C-6.49609375 90.26953125 -6.49609375 90.26953125 -7.49609375 89.26953125 C-7.59871135 87.3431348 -7.63181428 85.41300469 -7.63793945 83.48388672 C-7.64497391 82.24524872 -7.65200836 81.00661072 -7.65925598 79.73043823 C-7.66107187 79.06383053 -7.66288776 78.39722282 -7.66475868 77.71041489 C-7.67191589 75.6248032 -7.68757945 73.53942795 -7.70610046 71.45388794 C-7.75858401 65.52235291 -7.80648526 59.59094154 -7.82202148 53.65917969 C-7.83214192 50.03324694 -7.86157561 46.40790034 -7.90334129 42.78219986 C-7.91560718 41.40365167 -7.92078063 40.02502047 -7.91854286 38.64641953 C-7.84940341 28.23977643 -7.84940341 28.23977643 -12.49609375 19.26953125 C-17.86002351 14.18067481 -22.66920281 12.81836215 -29.92578125 12.9375 C-33.33271437 13.37760534 -35.85903462 14.58113981 -38.8046875 16.296875 C-40.49609375 17.26953125 -40.49609375 17.26953125 -43.49609375 18.26953125 C-44.58040469 20.01820608 -44.58040469 20.01820608 -45.49609375 22.26953125 C-46.00280106 23.17768585 -46.50950836 24.08584045 -47.03157043 25.02151489 C-48.59892543 28.49759112 -48.88918658 30.76367963 -48.9284668 34.55029297 C-48.94826096 35.77110565 -48.96805511 36.99191833 -48.9884491 38.24972534 C-48.99803398 40.20472458 -48.99803398 40.20472458 -49.0078125 42.19921875 C-49.0246743 43.55829476 -49.04282655 44.91735532 -49.06221008 46.27639771 C-49.10955399 49.83714976 -49.13946366 53.39783915 -49.16564941 56.95880127 C-49.19553429 60.59896212 -49.24203717 64.23890737 -49.28710938 67.87890625 C-49.37296451 75.00900451 -49.43885072 82.13913748 -49.49609375 89.26953125 C-56.42609375 89.26953125 -63.35609375 89.26953125 -70.49609375 89.26953125 C-70.49609375 58.57953125 -70.49609375 27.88953125 -70.49609375 -3.73046875 C-64.22609375 -3.73046875 -57.95609375 -3.73046875 -51.49609375 -3.73046875 C-49.75652717 -1.99090217 -50.12418989 0.46319345 -49.93359375 2.83203125 C-49.80791016 4.34990234 -49.80791016 4.34990234 -49.6796875 5.8984375 C-49.61910156 6.68089844 -49.55851563 7.46335937 -49.49609375 8.26953125 C-49.09519531 7.75003906 -48.69429687 7.23054687 -48.28125 6.6953125 C-36.54761257 -7.69901369 -15.50310985 -10.74785237 0 0 Z " fill="#A67D2C" transform="translate(792.49609375,532.73046875)"/>
<path d="M0 0 C35.11080747 -0.54860637 70.80860105 0.23227957 99.05859375 24.01953125 C101 26 101 26 102 29 C98.37609762 30.58585375 94.7506775 32.16820933 91.125 33.75 C89.60519531 34.41515625 89.60519531 34.41515625 88.0546875 35.09375 C81.74516509 37.84405464 75.40270145 40.47517873 69 43 C67.52584495 43.59326144 66.05188131 44.18699874 64.578125 44.78125 C56.72501597 47.91551863 48.93335434 50.76837215 40.7578125 52.96875 C37.01633516 53.99551717 33.31591742 55.11863452 29.60864258 56.26098633 C7.67554447 63 7.67554447 63 0 63 C0 42.21 0 21.42 0 0 Z " fill="#FCFCFD" transform="translate(372,194)"/>
<path d="M0 0 C0.70769531 -0.00773438 1.41539062 -0.01546875 2.14453125 -0.0234375 C9.67142058 0.00408312 15.97091885 1.7001647 22.6875 5.125 C23.67105469 5.61742187 24.65460938 6.10984375 25.66796875 6.6171875 C30.12503801 9.18691847 33.7094128 12.13008493 36.875 16.1875 C37.66003906 17.16009766 37.66003906 17.16009766 38.4609375 18.15234375 C39.5 20.25 39.5 20.25 39.55859375 22.76171875 C37.99518118 26.43660364 35.68299314 27.31309811 32.1875 29.125 C31.03636719 29.74117187 29.88523437 30.35734375 28.69921875 30.9921875 C25.5 32.25 25.5 32.25 23.19140625 32.12109375 C21.5 31.25 21.5 31.25 19.75 28.4375 C16.3646577 23.64159841 11.94707097 22.06569032 6.5 20.25 C-1.56977845 19.4305752 -8.07770901 19.2943949 -14.6015625 24.484375 C-15.22804688 25.06703125 -15.85453125 25.6496875 -16.5 26.25 C-17.08523438 26.79140625 -17.67046875 27.3328125 -18.2734375 27.890625 C-23.92979401 33.79530936 -25.64022704 40.26633952 -25.8125 48.3125 C-25.48432864 58.68271508 -22.68950383 66.31997136 -15 73.625 C-7.46478207 78.52289166 -1.38437314 79.2675934 7.5 78.25 C15.07069641 76.06380959 19.4544548 71.87745819 23.5 65.25 C27.92323682 65.83265272 31.0155864 67.51766211 34.8125 69.8125 C35.88113281 70.45316406 36.94976562 71.09382812 38.05078125 71.75390625 C38.85902344 72.24761719 39.66726563 72.74132812 40.5 73.25 C39.65761726 80.63401116 33.75963738 85.44837736 28.359375 90.08984375 C17.97083074 97.6503954 5.08085818 99.9522406 -7.5 98.25 C-16.32779802 96.45808241 -24.52763177 93.00113876 -31.5 87.25 C-32.12261719 86.73824219 -32.74523437 86.22648438 -33.38671875 85.69921875 C-43.12076143 76.85200859 -46.96591534 64.69293951 -47.8515625 51.87890625 C-48.44299001 38.49217202 -45.27641937 26.6972038 -36.5 16.25 C-26.28631997 5.48757807 -14.87574322 -0.16257643 0 0 Z " fill="#0C1D30" transform="translate(322.5,526.75)"/>
<path d="M0 0 C5.61 -0.04125 11.22 -0.0825 17 -0.125 C18.75441406 -0.14320801 20.50882813 -0.16141602 22.31640625 -0.18017578 C23.73176774 -0.18602569 25.14713263 -0.19112006 26.5625 -0.1953125 C27.27728516 -0.20554443 27.99207031 -0.21577637 28.72851562 -0.22631836 C38.12158858 -0.22951763 44.58914379 2.35624922 51.875 8.375 C55.13434784 12.52326088 54.68121956 17.54119094 54.46875 22.58203125 C53.80326438 27.43453053 52.63743021 30.66098424 49 34 C41.71473777 38.68422353 35.52054945 40.1572696 26.953125 40.09765625 C26.26911621 40.09664917 25.58510742 40.09564209 24.88037109 40.09460449 C22.33689689 40.0893913 19.79344668 40.07543006 17.25 40.0625 C8.71125 40.0315625 8.71125 40.0315625 0 40 C0 26.8 0 13.6 0 0 Z " fill="#F9F9FA" transform="translate(70,564)"/>
<path d="M0 0 C8.353125 -0.1546875 8.353125 -0.1546875 16.875 -0.3125 C19.47930908 -0.38078003 19.47930908 -0.38078003 22.13623047 -0.45043945 C30.62594529 -0.58035593 37.96703434 -0.45054838 45 5 C48.12765148 8.29653227 49.24644656 11.95879147 49.5625 16.4375 C49.25025795 22.34995425 46.75277118 26.22130723 42.67773438 30.3347168 C35.5801797 36.06649917 26.08514673 34.53329424 17.5 34.3125 C15.80211613 34.28738817 14.10419654 34.26458008 12.40625 34.24414062 C8.26922435 34.19363982 4.13720718 34.09576868 0 34 C0 22.78 0 11.56 0 0 Z " fill="#FBFCFC" transform="translate(70,512)"/>
<path d="M0 0 C1.79244141 0.02707031 1.79244141 0.02707031 3.62109375 0.0546875 C6.53992527 0.1013888 9.45701761 0.1668666 12.375 0.25 C12.62687165 8.45704369 12.49681924 14.49582267 7.375 21.25 C1.30396583 26.55254883 -5.1892363 29.70620659 -13.28125 29.50390625 C-18.23565572 28.96717896 -22.21566 27.40638154 -26.0625 24.25 C-28.89661828 20.6223286 -29.03961305 16.97096984 -28.953125 12.53125 C-28.5326453 9.60791496 -27.42590147 7.61726846 -25.34179688 5.52124023 C-17.65038818 -0.17403353 -9.20727536 -0.26687755 0 0 Z " fill="#FCFBF8" transform="translate(876.625,579.75)"/>
<path d="M0 0 C1.36521966 0.01507008 2.73045535 0.02875439 4.09570312 0.04101562 C7.41838096 0.07623836 10.74023181 0.12549959 14.0625 0.1875 C14.09488499 1.59880361 14.1177402 3.01032745 14.13671875 4.421875 C14.15738403 5.60088379 14.15738403 5.60088379 14.1784668 6.80371094 C13.92718253 11.96905745 12.10634689 15.90505953 8.875 19.875 C7.946875 20.638125 7.01875 21.40125 6.0625 22.1875 C5.55460937 22.65414062 5.04671875 23.12078125 4.5234375 23.6015625 C-0.00335575 27.17114837 -4.41915103 27.67994818 -10.0625 27.75 C-10.74352783 27.76458252 -11.42455566 27.77916504 -12.1262207 27.79418945 C-17.16033726 27.69312737 -20.04867514 26.30087467 -23.9375 23.1875 C-27.07605939 19.52584737 -27.52698703 16.08833496 -27.34765625 11.40234375 C-26.6397243 7.57951123 -24.77881493 5.72654738 -21.9375 3.1875 C-15.08067416 -0.93243939 -7.77238433 -0.14941472 0 0 Z " fill="#FBFCFC" transform="translate(428.9375,580.8125)"/>
<path d="M0 0 C5.51745966 3.11450683 9.77078203 6.93451517 11.84765625 13.04296875 C11.84765625 15.68296875 11.84765625 18.32296875 11.84765625 21.04296875 C-3.99234375 21.04296875 -19.83234375 21.04296875 -36.15234375 21.04296875 C-34.11177893 10.84014466 -32.98763278 7.12171669 -24.85546875 1.4375 C-16.96435199 -3.0483737 -8.38494777 -3.66733855 0 0 Z " fill="#FCFAF7" transform="translate(669.15234375,545.95703125)"/>
<path d="M0 0 C4.84008827 2.73130383 7.82974455 6.24995442 10.625 11 C11.19734375 11.92619141 11.19734375 11.92619141 11.78125 12.87109375 C12.625 15 12.625 15 12.625 21 C-3.545 21 -19.715 21 -36.375 21 C-34.25386867 11.45490902 -32.36709519 6.31973521 -24.1875 1.0625 C-16.69523495 -3.29690471 -7.91017617 -3.57698406 0 0 Z " fill="#F6F7F8" transform="translate(223.375,546)"/>
<path d="M0 0 C3 2.5 3 2.5 5 5 C5.33 5.33 5.66 5.66 6 6 C6.52263424 10.38266144 7.02371348 15.01751008 4.953125 19.02734375 C2.47216618 22.01179127 0.45947272 23.79014118 -3.390625 24.34375 C-10.69893792 24.74311136 -10.69893792 24.74311136 -14.05859375 22.82421875 C-17.50502825 19.36125459 -18.40898902 16.21233684 -18.625 11.375 C-18.41516286 7.81752857 -18.05958972 6.10814431 -16.3125 2.9375 C-11.20495664 -1.34179309 -6.34398096 -1.82734234 0 0 Z " fill="#F3F4F5" transform="translate(367,673)"/>
<path d="M0 0 C12 0 12 0 17 3 C17.3125 6.4375 17.3125 6.4375 17 10 C17 11.32 17 12.64 17 14 C17.33 14.33 17.66 14.66 18 15 C18.26293056 19.03160191 18.29404844 20.55892734 16 24 C10.83608171 25.7213061 5.40708764 25.05353552 0 25 C0 16.75 0 8.5 0 0 Z " fill="#303848" transform="translate(555,672)"/>
<path d="M0 0 C13.45958286 -0.37044723 13.45958286 -0.37044723 15.9375 1.328125 C17.55310242 3.87032293 17.18061192 6.05000537 17 9 C17 10.32 17 11.64 17 13 C17.33 13.33 17.66 13.66 18 14 C18.375 17.375 18.375 17.375 18 21 C12.57691879 25.43339413 6.66088546 24.20184501 0 24 C0 16.08 0 8.16 0 0 Z " fill="#242F3C" transform="translate(229,673)"/>
<path d="M0 0 C13.45958286 -0.37044723 13.45958286 -0.37044723 15.9375 1.328125 C17.55310242 3.87032293 17.18061192 6.05000537 17 9 C17 10.32 17 11.64 17 13 C17.33 13.33 17.66 13.66 18 14 C18.3125 17.375 18.3125 17.375 18 21 C15.57506755 23.65472654 14.15901197 23.98650917 10.546875 24.29296875 C7.03125 24.1953125 3.515625 24.09765625 0 24 C0 16.08 0 8.16 0 0 Z " fill="#3A4554" transform="translate(468,673)"/>
<path d="M0 0 C43.56 0 87.12 0 132 0 C132 0.99 132 1.98 132 3 C88.44 3 44.88 3 0 3 C0 2.01 0 1.02 0 0 Z " fill="#434752" transform="translate(48,683)"/>
<path d="M0 0 C40.92 0 81.84 0 124 0 C124 0.99 124 1.98 124 3 C82.75 3 41.5 3 -1 3 C-0.67 2.01 -0.34 1.02 0 0 Z " fill="#454853" transform="translate(784,683)"/>
<path d="M0 0 C13.32338002 -0.49345852 13.32338002 -0.49345852 16.453125 1.7890625 C18 4 18 4 18 7.625 C17 11 17 11 14.9375 12.2109375 C14.298125 12.47132813 13.65875 12.73171875 13 13 C13.3609375 13.62648438 13.721875 14.25296875 14.09375 14.8984375 C14.5578125 15.71570313 15.021875 16.53296875 15.5 17.375 C15.9640625 18.18710937 16.428125 18.99921875 16.90625 19.8359375 C18 22 18 22 18 24 C16.68 24 15.36 24 14 24 C13.69707031 23.36191406 13.39414062 22.72382812 13.08203125 22.06640625 C12.66308594 21.24011719 12.24414062 20.41382813 11.8125 19.5625 C11.40644531 18.73878906 11.00039063 17.91507813 10.58203125 17.06640625 C9.13366813 14.75309288 9.13366813 14.75309288 6.32421875 14.21484375 C5.55722656 14.14394531 4.79023437 14.07304688 4 14 C4 17.3 4 20.6 4 24 C2.68 24 1.36 24 0 24 C0 16.08 0 8.16 0 0 Z " fill="#4E5665" transform="translate(722,673)"/>
<path d="M0 0 C0.99 0.66 1.98 1.32 3 2 C1.91290879 13.08833034 -4.87549555 19.13829306 -13 26 C-17.1728766 29.52891416 -21.17772242 33.08449614 -25 37 C-25.63035156 37.62003906 -26.26070312 38.24007812 -26.91015625 38.87890625 C-29.99476213 41.91738718 -33.00423255 44.90974443 -35.6875 48.3125 C-37.97586977 50.97195676 -39.94406504 52.34814327 -43 54 C-43.66 54.66 -44.32 55.32 -45 56 C-46.03854491 56.89600296 -47.08359404 57.78448845 -48.1328125 58.66796875 C-52.15675857 62.10174994 -56.02333162 65.6876459 -59.875 69.3125 C-60.57753906 69.97113037 -61.28007813 70.62976074 -62.00390625 71.30834961 C-65.74238315 74.82612853 -69.41358244 78.38860884 -73 82.0625 C-76.19055467 85.31417641 -79.51658662 88.03914268 -83.2734375 90.61328125 C-85.24260489 92.19485234 -86.56333518 93.93314171 -88 96 C-88.99 95.34 -89.98 94.68 -91 94 C-90.27296875 93.33355469 -89.5459375 92.66710937 -88.796875 91.98046875 C-88.31718262 91.5407373 -87.83749023 91.10100586 -87.34326172 90.64794922 C-86.26681819 89.66123681 -85.19031938 88.6745847 -84.11376953 87.68798828 C-81.3688492 85.17227556 -78.624671 82.65576848 -75.8828125 80.13671875 C-71.33848994 75.96343627 -66.78683846 71.80029687 -62.1875 67.6875 C-57.23158735 63.24399189 -52.37335266 58.6989607 -47.52807617 54.13549805 C-44.42348597 51.22111249 -41.28729249 48.36046959 -38.0703125 45.5703125 C-33.76765762 41.83009617 -29.63101463 37.92784998 -25.5 34 C-20.660069 29.3980984 -15.76742761 24.89206162 -10.72753906 20.50976562 C-3.64252467 14.31788759 -0.8546977 9.48888875 0 0 Z " fill="#C5A65D" transform="translate(680,75)"/>
<path d="M0 0 C39.93 0 79.86 0 121 0 C121 0.33 121 0.66 121 1 C96.56606393 2.00340799 72.13446383 2.29374824 47.68304443 2.53222656 C42.51262813 2.58341165 37.34225425 2.63857929 32.171875 2.69335938 C22.11461996 2.79935513 12.05732733 2.90111839 2 3 C2 3.66 2 4.32 2 5 C3.2375 4.9071875 3.2375 4.9071875 4.5 4.8125 C8.88193696 5.04724662 11.95495082 6.32618654 16 8 C15.67 8.66 15.34 9.32 15 10 C14.01 9.67 13.02 9.34 12 9 C9.13569136 8.69760965 6.27080066 8.49234231 3.3984375 8.28125 C1 8 1 8 0 7 C0 4.69 0 2.38 0 0 Z " fill="#D3B36E" transform="translate(661,62)"/>
<path d="M0 0 C0.66 0.33 1.32 0.66 2 1 C1.15179687 1.72703125 0.30359375 2.4540625 -0.5703125 3.203125 C-1.40961304 3.92254272 -1.40961304 3.92254272 -2.26586914 4.65649414 C-3.52282205 5.73385877 -4.77982201 6.8111685 -6.03686523 7.88842773 C-9.22226785 10.61837748 -12.40706545 13.34902212 -15.58984375 16.08203125 C-18.47963714 18.56310159 -21.37212437 21.04099727 -24.26660156 23.51660156 C-25.43335966 24.51508357 -26.59936185 25.51444949 -27.76464844 26.51464844 C-39.68742081 36.74267915 -39.68742081 36.74267915 -46 41 C-46.495 39.515 -46.495 39.515 -47 38 C-46.34 38 -45.68 38 -45 38 C-45 37.34 -45 36.68 -45 36 C-46.65 35.67 -48.3 35.34 -50 35 C-47.88064789 32.7378211 -45.75094437 31.08999977 -43.11328125 29.46875 C-41.96484741 28.75585815 -41.96484741 28.75585815 -40.79321289 28.02856445 C-39.97457764 27.52413818 -39.15594238 27.01971191 -38.3125 26.5 C-25.10130899 18.25385251 -12.35687723 9.47828651 0 0 Z " fill="#19293B" transform="translate(594,150)"/>
<path d="M0 0 C3 2.5 3 2.5 5 5 C5.33 5.33 5.66 5.66 6 6 C6.52263424 10.38266144 7.02371348 15.01751008 4.953125 19.02734375 C2.47216618 22.01179127 0.45947272 23.79014118 -3.390625 24.34375 C-10.69893792 24.74311136 -10.69893792 24.74311136 -14.05859375 22.82421875 C-17.50502825 19.36125459 -18.40898902 16.21233684 -18.625 11.375 C-18.41516286 7.81752857 -18.05958972 6.10814431 -16.3125 2.9375 C-11.20495664 -1.34179309 -6.34398096 -1.82734234 0 0 Z M-14 6 C-15.53214888 9.06429776 -15.22938548 11.6165642 -15 15 C-13.25271222 18.72803465 -13.25271222 18.72803465 -10 21 C-4.3221563 21.6589273 -4.3221563 21.6589273 0.5 19.125 C2.61878046 14.71087404 2.93232017 10.80752921 2 6 C-0.54127833 2.86077382 -2.04772399 2.15871267 -6 1.5 C-9.69203416 2.11533903 -11.34016868 3.41616386 -14 6 Z " fill="#272E40" transform="translate(367,673)"/>
<path d="M0 0 C5.28 0 10.56 0 16 0 C16 1.32 16 2.64 16 4 C12.04 4 8.08 4 4 4 C4 6.31 4 8.62 4 11 C7.3 11 10.6 11 14 11 C14 11.99 14 12.98 14 14 C10.7 14 7.4 14 4 14 C4 16.64 4 19.28 4 22 C7.96 22 11.92 22 16 22 C16 22.99 16 23.98 16 25 C10.72 25 5.44 25 0 25 C0 16.75 0 8.5 0 0 Z " fill="#484E5B" transform="translate(264,672)"/>
<path d="M0 0 C5.28 0 10.56 0 16 0 C16 1.32 16 2.64 16 4 C12.04 4 8.08 4 4 4 C4 6.31 4 8.62 4 11 C7.3 11 10.6 11 14 11 C14 11.99 14 12.98 14 14 C10.7 14 7.4 14 4 14 C4 16.64 4 19.28 4 22 C7.96 22 11.92 22 16 22 C16 22.99 16 23.98 16 25 C13.52076199 25.02685095 11.0418116 25.04676547 8.5625 25.0625 C7.85544922 25.07087891 7.14839844 25.07925781 6.41992188 25.08789062 C4.61306441 25.09653588 2.80612397 25.05220011 1 25 C0 24 0 24 -0.11352539 21.68334961 C-0.10828857 20.68311768 -0.10305176 19.68288574 -0.09765625 18.65234375 C-0.09443359 17.57275391 -0.09121094 16.49316406 -0.08789062 15.38085938 C-0.07951172 14.24455078 -0.07113281 13.10824219 -0.0625 11.9375 C-0.05798828 10.79732422 -0.05347656 9.65714844 -0.04882812 8.48242188 C-0.0369976 5.65492582 -0.0190615 2.82745655 0 0 Z " fill="#444B59" transform="translate(503,672)"/>
<path d="M0 0 C1.39456452 0.00667256 2.78911118 0.01863093 4.18359375 0.03515625 C4.89451172 0.03966797 5.60542969 0.04417969 6.33789062 0.04882812 C8.09899388 0.06064761 9.86005411 0.07858362 11.62109375 0.09765625 C11.62109375 1.41765625 11.62109375 2.73765625 11.62109375 4.09765625 C7.66109375 4.09765625 3.70109375 4.09765625 -0.37890625 4.09765625 C-0.37890625 6.40765625 -0.37890625 8.71765625 -0.37890625 11.09765625 C2.92109375 11.09765625 6.22109375 11.09765625 9.62109375 11.09765625 C9.62109375 12.08765625 9.62109375 13.07765625 9.62109375 14.09765625 C6.32109375 14.09765625 3.02109375 14.09765625 -0.37890625 14.09765625 C-0.37890625 16.73765625 -0.37890625 19.37765625 -0.37890625 22.09765625 C3.58109375 22.09765625 7.54109375 22.09765625 11.62109375 22.09765625 C11.62109375 23.08765625 11.62109375 24.07765625 11.62109375 25.09765625 C6.34109375 25.09765625 1.06109375 25.09765625 -4.37890625 25.09765625 C-4.40573239 21.11844531 -4.42566018 17.13941284 -4.44140625 13.16015625 C-4.44978516 12.02384766 -4.45816406 10.88753906 -4.46679688 9.71679688 C-4.47001953 8.63720703 -4.47324219 7.55761719 -4.4765625 6.4453125 C-4.48179932 5.44508057 -4.48703613 4.44484863 -4.49243164 3.41430664 C-4.31074334 -0.29330681 -3.83456606 0.11082561 0 0 Z " fill="#353C4C" transform="translate(593.37890625,671.90234375)"/>
<path d="M0 0 C2.52166467 0.45408127 5.04225816 0.9131407 7.5625 1.375 C8.26697266 1.50132812 8.97144531 1.62765625 9.69726562 1.7578125 C14.22714697 2.59281367 18.59030133 3.66723956 23 5 C23 7.31 23 9.62 23 12 C-31.78 12 -86.56 12 -143 12 C-143 11.67 -143 11.34 -143 11 C-61.82 10.505 -61.82 10.505 21 10 C21 8.68 21 7.36 21 6 C19.02 6 17.04 6 15 6 C15 5.34 15 4.68 15 4 C14.12988281 4.05220703 14.12988281 4.05220703 13.2421875 4.10546875 C7.990866 4.28744524 4.60488781 3.83377711 0 1 C0 0.67 0 0.34 0 0 Z " fill="#CDB789" transform="translate(791,428)"/>
<path d="M0 0 C4.95 0 9.9 0 15 0 C15 1.32 15 2.64 15 4 C11.04 4 7.08 4 3 4 C3 6.31 3 8.62 3 11 C6.63 11 10.26 11 14 11 C14 11.99 14 12.98 14 14 C10.37 14 6.74 14 3 14 C3 16.64 3 19.28 3 22 C6.96 22 10.92 22 15 22 C15 22.99 15 23.98 15 25 C10.05 25 5.1 25 0 25 C0 16.75 0 8.5 0 0 Z " fill="#393E4A" transform="translate(690,672)"/>
<path d="M0 0 C0.99 0 1.98 0 3 0 C3.01981934 0.56509277 3.03963867 1.13018555 3.06005859 1.71240234 C3.15518236 4.26707997 3.26491058 6.82092541 3.375 9.375 C3.42140625 10.70917969 3.42140625 10.70917969 3.46875 12.0703125 C3.50742187 12.92109375 3.54609375 13.771875 3.5859375 14.6484375 C3.6173584 15.43395996 3.6487793 16.21948242 3.68115234 17.02880859 C3.8399465 19.23002939 3.8399465 19.23002939 6 21 C9.5 21.41666667 9.5 21.41666667 13 21 C15.0140956 17.9788566 15.26836596 17.19339983 15.4140625 13.76953125 C15.45273437 12.96708984 15.49140625 12.16464844 15.53125 11.33789062 C15.57765625 10.08782227 15.57765625 10.08782227 15.625 8.8125 C15.66367187 7.96751953 15.70234375 7.12253906 15.7421875 6.25195312 C15.83636279 4.16832476 15.91926675 2.08419247 16 0 C16.99 0 17.98 0 19 0 C19.14539953 3.41621788 19.23409725 6.83163991 19.3125 10.25 C19.35439453 11.21808594 19.39628906 12.18617188 19.43945312 13.18359375 C19.56260951 20.32666415 19.56260951 20.32666415 16.796875 23.63671875 C13.92295131 25.03755586 12.11584426 25.56741243 8.9375 25.5625 C7.68259766 25.59537109 7.68259766 25.59537109 6.40234375 25.62890625 C4 25 4 25 1.70703125 23.109375 C-0.75541829 18.62399781 -0.4346296 14.71155548 -0.25 9.6875 C-0.23195313 8.75615234 -0.21390625 7.82480469 -0.1953125 6.86523438 C-0.14834888 4.57575803 -0.08269475 2.28841816 0 0 Z " fill="#1F2939" transform="translate(390,672)"/>
<path d="M0 0 C2.10353495 -0.0810206 4.20795952 -0.13919907 6.3125 -0.1875 C7.48425781 -0.22230469 8.65601563 -0.25710938 9.86328125 -0.29296875 C13 0 13 0 14.90625 1.328125 C16.56610165 3.8653268 16.18167347 6.03266668 16 9 C16 10.32 16 11.64 16 13 C16.33 13.33 16.66 13.66 17 14 C17.375 17.375 17.375 17.375 17 21 C14.05053792 23.7707068 12.23411674 23.98848606 8.1875 24.1875 C7.135625 24.125625 6.08375 24.06375 5 24 C6.62366466 20.75267068 9.75387839 20.29844864 13 19 C12.65555119 16.52733235 12.65555119 16.52733235 12 14 C11.34 13.67 10.68 13.34 10 13 C10 12.34 10 11.68 10 11 C9.34 10.67 8.68 10.34 8 10 C9.32 9.34 10.64 8.68 12 8 C11.67 6.68 11.34 5.36 11 4 C8.03 3.67 5.06 3.34 2 3 C2 8.94 2 14.88 2 21 C1.67 21 1.34 21 1 21 C0.07907719 16.34462644 -0.12205997 11.85314567 -0.0625 7.125 C-0.05798828 6.43664062 -0.05347656 5.74828125 -0.04882812 5.0390625 C-0.03716336 3.35933665 -0.01923271 1.67965625 0 0 Z " fill="#1F2839" transform="translate(230,673)"/>
<path d="M0 0 C2.65204896 0.36834013 3.73840056 0.6867691 5.484375 2.77734375 C5.90203125 3.49019531 6.3196875 4.20304688 6.75 4.9375 C7.17796875 5.64777344 7.6059375 6.35804688 8.046875 7.08984375 C9 9 9 9 9 11 C9.66 11 10.32 11 11 11 C11.268125 10.278125 11.53625 9.55625 11.8125 8.8125 C13.01261623 5.97011947 14.19186511 3.50357139 16 1 C18.1875 0.1875 18.1875 0.1875 20 0 C19.1270846 2.46003431 18.16821416 4.72922947 16.7890625 6.94921875 C13.0726542 12.93199164 12.14407371 17.99277861 12 25 C10.68 25 9.36 25 8 25 C8.00902344 24.34515625 8.01804687 23.6903125 8.02734375 23.015625 C7.78331818 15.50388143 5.55346439 10.71149721 1.49609375 4.43359375 C0 2 0 2 0 0 Z " fill="#242F42" transform="translate(315,672)"/>
<path d="M0 0 C13.31644005 -0.49320148 13.31644005 -0.49320148 16.46875 1.78125 C18 4 18 4 17.75 7.75 C17.5025 8.8225 17.255 9.895 17 11 C16.01 11.33 15.02 11.66 14 12 C13.67 9.36 13.34 6.72 13 4 C9.7 3.67 6.4 3.34 3 3 C3 9.93 3 16.86 3 24 C2.01 24 1.02 24 0 24 C0 16.08 0 8.16 0 0 Z " fill="#1E2938" transform="translate(722,673)"/>
<path d="M0 0 C0.66 0.33 1.32 0.66 2 1 C2 4.33333333 2 7.66666667 2 11 C2.33 11.33 2.66 11.66 3 12 C3.3125 15.375 3.3125 15.375 3 19 C0.57506755 21.65472654 -0.84098803 21.98650917 -4.453125 22.29296875 C-5.70609375 22.25816406 -6.9590625 22.22335937 -8.25 22.1875 C-9.51328125 22.16042969 -10.7765625 22.13335938 -12.078125 22.10546875 C-13.04234375 22.07066406 -14.0065625 22.03585937 -15 22 C-14.67 18.7 -14.34 15.4 -14 12 C-13.34 12 -12.68 12 -12 12 C-12 14.31 -12 16.62 -12 19 C-8.7 18.67 -5.4 18.34 -2 18 C-1.30378052 15.68993053 -1.30378052 15.68993053 -1 13 C-1.350625 12.38125 -1.70125 11.7625 -2.0625 11.125 C-3.31326516 8.28993231 -2.71315018 7.09593124 -1.625 4.25 C-1.32851563 3.45078125 -1.03203125 2.6515625 -0.7265625 1.828125 C-0.48679687 1.22484375 -0.24703125 0.6215625 0 0 Z " fill="#283241" transform="translate(483,675)"/>
<path d="M0 0 C1.23556641 0.01740234 1.23556641 0.01740234 2.49609375 0.03515625 C3.32238281 0.04417969 4.14867187 0.05320312 5 0.0625 C5.63808594 0.07410156 6.27617187 0.08570313 6.93359375 0.09765625 C3.33632673 2.49583427 -0.0145872 3.00030423 -4.1875 3.71875 C-4.99580261 3.86340698 -5.80410522 4.00806396 -6.63690186 4.15710449 C-9.25798918 4.6238537 -11.88079427 5.07993502 -14.50390625 5.53515625 C-16.2914712 5.85006565 -18.07898753 6.16525111 -19.86645508 6.48071289 C-51.85287967 12.09765625 -51.85287967 12.09765625 -59.06640625 12.09765625 C-59.06640625 11.43765625 -59.06640625 10.77765625 -59.06640625 10.09765625 C-58.45152344 10.04867188 -57.83664062 9.9996875 -57.203125 9.94921875 C-56.39488281 9.87445313 -55.58664062 9.7996875 -54.75390625 9.72265625 C-53.95339844 9.65304687 -53.15289062 9.5834375 -52.328125 9.51171875 C-49.79416184 9.20201199 -49.79416184 9.20201199 -47.06640625 7.09765625 C-44.65625 6.9375 -44.65625 6.9375 -42.00390625 7.03515625 C-38.3935083 7.23977366 -38.3935083 7.23977366 -35.06640625 6.09765625 C-32.76831089 5.78895687 -30.46920496 5.58881977 -28.16015625 5.37890625 C-26.01196692 5.20550125 -26.01196692 5.20550125 -24.06640625 4.09765625 C-22.0258562 4.02700008 -19.98306368 4.01343649 -17.94140625 4.03515625 C-16.84570312 4.04417969 -15.75 4.05320312 -14.62109375 4.0625 C-13.35652344 4.07990234 -13.35652344 4.07990234 -12.06640625 4.09765625 C-12.06640625 3.43765625 -12.06640625 2.77765625 -12.06640625 2.09765625 C-11.10927734 2.00677734 -11.10927734 2.00677734 -10.1328125 1.9140625 C-9.30652344 1.83027344 -8.48023438 1.74648438 -7.62890625 1.66015625 C-6.80519531 1.57894531 -5.98148437 1.49773437 -5.1328125 1.4140625 C-2.72569953 1.04548755 -2.43674783 0.11515822 0 0 Z " fill="#91763C" transform="translate(366.06640625,327.90234375)"/>
<path d="M0 0 C6.6 0 13.2 0 20 0 C20 0.99 20 1.98 20 3 C17.36 3.33 14.72 3.66 12 4 C11.67 10.93 11.34 17.86 11 25 C10.34 25 9.68 25 9 25 C8.67 17.74 8.34 10.48 8 3 C5.36 3 2.72 3 0 3 C0 2.01 0 1.02 0 0 Z " fill="#3B414F" transform="translate(654,672)"/>
<path d="M0 0 C2.97 0 5.94 0 9 0 C9.33 1.32 9.66 2.64 10 4 C27.49 4.33 44.98 4.66 63 5 C63 5.33 63 5.66 63 6 C42.21 6 21.42 6 0 6 C0 4.02 0 2.04 0 0 Z " fill="#976F25" transform="translate(648,433)"/>
<path d="M0 0 C3.5625 0.1875 3.5625 0.1875 5.5625 2.1875 C5.8125 5.6875 5.8125 5.6875 5.5625 9.1875 C3.5625 11.1875 3.5625 11.1875 0.0625 11.5 C-1.67 11.3453125 -1.67 11.3453125 -3.4375 11.1875 C-5.4375 8.1875 -5.4375 8.1875 -5.125 4.5625 C-4.24274345 0.23142237 -4.24274345 0.23142237 0 0 Z " fill="#A78237" transform="translate(771.4375,678.8125)"/>
<path d="M0 0 C3.5625 0.1875 3.5625 0.1875 5.5625 2.1875 C5.875 5.6875 5.875 5.6875 5.5625 9.1875 C2.11220958 11.48769361 0.61695642 11.61882515 -3.4375 11.1875 C-5.4375 8.1875 -5.4375 8.1875 -5.125 4.5625 C-4.24274345 0.23142237 -4.24274345 0.23142237 0 0 Z " fill="#A98339" transform="translate(191.4375,678.8125)"/>
<path d="M0 0 C6.27 0 12.54 0 19 0 C19 0.66 19 1.32 19 2 C16.36 2 13.72 2 11 2 C11 9.26 11 16.52 11 24 C10.01 24 9.02 24 8 24 C7.67 17.07 7.34 10.14 7 3 C4.69 2.67 2.38 2.34 0 2 C0 1.34 0 0.68 0 0 Z " fill="#131E30" transform="translate(620,673)"/>
<path d="M0 0 C0.99 0.66 1.98 1.32 3 2 C1.91290879 13.08833034 -4.87549555 19.13829306 -13 26 C-17.1718867 29.52807702 -21.18189529 33.08141885 -25 37 C-26.66666667 38.66666667 -28.33333333 40.33333333 -30 42 C-30.99 41.67 -31.98 41.34 -33 41 C-30.50217427 38.64351776 -28.00133185 36.29025984 -25.5 33.9375 C-24.80390625 33.28072266 -24.1078125 32.62394531 -23.390625 31.94726562 C-19.8813668 28.64921278 -16.34378662 25.40009645 -12.7109375 22.23828125 C-4.86293735 15.40750711 -0.96171548 10.67700448 0 0 Z " fill="#DABC72" transform="translate(680,75)"/>
<path d="M0 0 C4.62 0 9.24 0 14 0 C14 0.66 14 1.32 14 2 C10.37 2 6.74 2 3 2 C3 4.64 3 7.28 3 10 C6.3 10 9.6 10 13 10 C13 10.99 13 11.98 13 13 C9.7 13 6.4 13 3 13 C3 15.64 3 18.28 3 21 C2.67 21 2.34 21 2 21 C1.67 18.69 1.34 16.38 1 14 C0.67 14 0.34 14 0 14 C0 9.38 0 4.76 0 0 Z " fill="#181F2E" transform="translate(504,673)"/>
<path d="M0 0 C1.64574566 -0.02688151 3.29161413 -0.04634123 4.9375 -0.0625 C5.85402344 -0.07410156 6.77054688 -0.08570313 7.71484375 -0.09765625 C10 0 10 0 11 1 C11.125 4 11.125 4 11 7 C10 8 10 8 7.71484375 8.09765625 C6.34005859 8.08025391 6.34005859 8.08025391 4.9375 8.0625 C4.01839844 8.05347656 3.09929688 8.04445313 2.15234375 8.03515625 C1.44207031 8.02355469 0.73179687 8.01195312 0 8 C0 5.36 0 2.72 0 0 Z " fill="#E9ECEF" transform="translate(558,686)"/>
<path d="M0 0 C1.45792884 -0.05399736 2.91642712 -0.09279177 4.375 -0.125 C5.18710937 -0.14820313 5.99921875 -0.17140625 6.8359375 -0.1953125 C9 0 9 0 11 2 C10.44444444 6.55555556 10.44444444 6.55555556 9 8 C7.48071962 8.07179964 5.95832518 8.08392007 4.4375 8.0625 C3.61121094 8.05347656 2.78492188 8.04445313 1.93359375 8.03515625 C1.29550781 8.02355469 0.65742188 8.01195312 0 8 C0 5.36 0 2.72 0 0 Z " fill="#EEF0F3" transform="translate(472,686)"/>
<path d="M0 0 C1.45792884 -0.05399736 2.91642712 -0.09279177 4.375 -0.125 C5.18710938 -0.14820313 5.99921875 -0.17140625 6.8359375 -0.1953125 C9 0 9 0 11 2 C10.44444444 6.55555556 10.44444444 6.55555556 9 8 C7.48071962 8.07179964 5.95832518 8.08392007 4.4375 8.0625 C3.61121094 8.05347656 2.78492188 8.04445313 1.93359375 8.03515625 C1.29550781 8.02355469 0.65742188 8.01195312 0 8 C0 5.36 0 2.72 0 0 Z " fill="#F0F2F5" transform="translate(233,686)"/>
<path d="M0 0 C1.91015625 0.23046875 1.91015625 0.23046875 3.91015625 2.23046875 C3.35460069 6.78602431 3.35460069 6.78602431 1.91015625 8.23046875 C0.39087587 8.30226839 -1.13151857 8.31438882 -2.65234375 8.29296875 C-3.47863281 8.28394531 -4.30492187 8.27492188 -5.15625 8.265625 C-5.79433594 8.25402344 -6.43242188 8.24242187 -7.08984375 8.23046875 C-7.13226098 5.897521 -7.13077312 3.56344308 -7.08984375 1.23046875 C-5.19495423 -0.66442077 -2.51845229 0.05027763 0 0 Z " fill="#E2E4E7" transform="translate(565.08984375,674.76953125)"/>
<path d="M0 0 C1.47906892 -0.02689216 2.95827483 -0.04634621 4.4375 -0.0625 C5.26121094 -0.07410156 6.08492187 -0.08570313 6.93359375 -0.09765625 C9 0 9 0 10 1 C10.1875 3.4375 10.1875 3.4375 10 6 C8 8 8 8 6.0546875 8.1953125 C4.03645833 8.13020833 2.01822917 8.06510417 0 8 C0 5.36 0 2.72 0 0 Z " fill="#F7F8FA" transform="translate(726,676)"/>
<path d="M0 0 C6.0546875 -0.1953125 6.0546875 -0.1953125 8 0 C8.66 0.66 9.32 1.32 10 2 C9.875 4 9.875 4 9 6 C6.50159405 7.87380446 5.36680834 8.05001932 2.25 7.625 C1.5075 7.41875 0.765 7.2125 0 7 C0 4.69 0 2.38 0 0 Z " fill="#EEF0F2" transform="translate(233,676)"/>
<path d="M0 0 C0.66 0.33 1.32 0.66 2 1 C0.62328125 2.17755859 0.62328125 2.17755859 -0.78125 3.37890625 C-1.37260742 3.88518555 -1.96396484 4.39146484 -2.57324219 4.91308594 C-3.8598936 6.01453259 -5.14700472 7.11544245 -6.43457031 8.21582031 C-10.525025 11.71688427 -14.57042344 15.25995184 -18.546875 18.890625 C-20 20 -20 20 -22 20 C-22 19.34 -22 18.68 -22 18 C-22.66 17.67 -23.32 17.34 -24 17 C-23.02160156 16.35933594 -22.04320312 15.71867188 -21.03515625 15.05859375 C-13.8036132 10.29660559 -6.70878066 5.49065517 0 0 Z " fill="#474D57" transform="translate(594,150)"/>
<path d="M0 0 C0.99 0.33 1.98 0.66 3 1 C1.33333333 2.66666667 -0.33333333 4.33333333 -2 6 C-2.845625 6.86625 -3.69125 7.7325 -4.5625 8.625 C-6.64239111 10.65156056 -8.66997331 12.28674508 -11 14 C-12.74856634 15.55564939 -14.49088772 17.11667469 -16.21875 18.6953125 C-18.14998915 20.10986047 -19.66223375 20.57961221 -22 21 C-19.1621343 17.09793467 -15.94630185 14.09301837 -12.3046875 10.98046875 C-9.66669401 8.71358282 -7.08237457 6.39248952 -4.5 4.0625 C-3.6440625 3.29035156 -2.788125 2.51820312 -1.90625 1.72265625 C-0.96265625 0.86994141 -0.96265625 0.86994141 0 0 Z " fill="#D4B267" transform="translate(646,117)"/>
<path d="M0 0 C2.10814567 4.21629134 2.17700355 6.39790775 2 11 C6.29 11 10.58 11 15 11 C15 11.99 15 12.98 15 14 C10.05 14 5.1 14 0 14 C0 9.38 0 4.76 0 0 Z " fill="#181E31" transform="translate(590,683)"/>
<path d="M0 0 C0.66 0 1.32 0 2 0 C2.33 2.31 2.66 4.62 3 7 C5.64 7.33 8.28 7.66 11 8 C11 8.33 11 8.66 11 9 C8.36 9.33 5.72 9.66 3 10 C2.34 13.63 1.68 17.26 1 21 C0.34 21 -0.32 21 -1 21 C-1.10808032 13.90272572 -0.93854006 7.03905044 0 0 Z " fill="#0F1A2E" transform="translate(556,676)"/>
<path d="M0 0 C6.15234375 -0.09765625 6.15234375 -0.09765625 8 0 C9 1 9 1 9.125 3.5 C9 6 9 6 8 7 C5.32941149 7.14115161 2.67567762 7.04247107 0 7 C0 4.69 0 2.38 0 0 Z " fill="#F7F9FA" transform="translate(472,676)"/>
<path d="M0 0 C0.99 0.66 1.98 1.32 3 2 C3.54527008 6.1284735 3.43206067 8.29018605 1.25 11.875 C-2.82388654 15.72255951 -6.54033508 15.10499356 -12 15 C-12 14.67 -12 14.34 -12 14 C-10.9275 13.773125 -9.855 13.54625 -8.75 13.3125 C-4.50570704 11.82699746 -3.22597628 10.85265126 -1 7 C-0.19777849 3.310252 -0.19777849 3.310252 0 0 Z " fill="#1D2633" transform="translate(370,681)"/>
<path d="M0 0 C0.99 0.99 1.98 1.98 3 3 C-2.67775075 6.57148837 -8.47370418 9.87167064 -14.4375 12.9375 C-15.34169678 13.41521851 -15.34169678 13.41521851 -16.26416016 13.90258789 C-17.80525056 14.68095368 -19.40088347 15.34912422 -21 16 C-21.99 15.67 -22.98 15.34 -24 15 C-21.38621865 12.38621865 -18.33372865 11.0023453 -15.0625 9.375 C-14.42892578 9.05015625 -13.79535156 8.7253125 -13.14257812 8.390625 C-10.23839846 6.93700826 -8.29138205 6 -5 6 C-5 5.34 -5 4.68 -5 4 C-4.01 4 -3.02 4 -2 4 C-1.34 2.68 -0.68 1.36 0 0 Z " fill="#94753B" transform="translate(537,272)"/>
<path d="M0 0 C3.96 0 7.92 0 12 0 C12 0.66 12 1.32 12 2 C7.545 2.495 7.545 2.495 3 3 C2.3272925 9.05436746 1.88723933 14.91092364 2 21 C1.67 21 1.34 21 1 21 C0.07907719 16.34462644 -0.12205997 11.85314567 -0.0625 7.125 C-0.05798828 6.43664062 -0.05347656 5.74828125 -0.04882812 5.0390625 C-0.03716336 3.35933665 -0.01923271 1.67965625 0 0 Z " fill="#050F1E" transform="translate(230,673)"/>
<path d="M0 0 C2.375 0.3125 2.375 0.3125 5 1 C7.56687367 4.8503105 6.83288724 6.58569763 6 11 C5.01 11.33 4.02 11.66 3 12 C2.67 9.36 2.34 6.72 2 4 C-0.97 3.67 -3.94 3.34 -7 3 C-7 2.67 -7 2.34 -7 2 C-4.69 2 -2.38 2 0 2 C0 1.34 0 0.68 0 0 Z " fill="#3F4453" transform="translate(733,673)"/>
<path d="M0 0 C6.27 0 12.54 0 19 0 C19 0.66 19 1.32 19 2 C16.36 2.33 13.72 2.66 11 3 C10.34 4.65 9.68 6.3 9 8 C8.67 8 8.34 8 8 8 C7.67 6.35 7.34 4.7 7 3 C4.69 2.67 2.38 2.34 0 2 C0 1.34 0 0.68 0 0 Z " fill="#0B1120" transform="translate(620,673)"/>
<path d="M0 0 C1.20628008 2.33214148 2.1654738 4.49642139 3 7 C-0.34939881 9.02558881 -2.86962551 9.21738987 -6.75 9.125 C-7.73484375 9.10695313 -8.7196875 9.08890625 -9.734375 9.0703125 C-10.85585938 9.03550781 -10.85585938 9.03550781 -12 9 C-12 8.01 -12 7.02 -12 6 C-6.555 5.505 -6.555 5.505 -1 5 C-0.67 3.35 -0.34 1.7 0 0 Z " fill="#313A4D" transform="translate(569,688)"/>
<path d="M0 0 C0.680625 0.804375 1.36125 1.60875 2.0625 2.4375 C5.53766916 5.46903054 7.49552002 5.59050182 12 6 C14.4375 7.0625 14.4375 7.0625 16 8 C12.02990115 9.98504943 7.3036749 9.68833993 3 9 C0.54640185 7.20939539 -0.39786539 5.65180901 -2 3 C-1.34 2.01 -0.68 1.02 0 0 Z " fill="#2F3847" transform="translate(352,688)"/>
<path d="M0 0 C2 2 2 2 2.1953125 3.9453125 C2.13020833 5.96354167 2.06510417 7.98177083 2 10 C5.96 10 9.92 10 14 10 C14 10.66 14 11.32 14 12 C9.38 12 4.76 12 0 12 C0 8.04 0 4.08 0 0 Z " fill="#1B2235" transform="translate(691,684)"/>
<path d="M0 0 C4.62 0 9.24 0 14 0 C14 0.66 14 1.32 14 2 C10.37 2.33 6.74 2.66 3 3 C2.67 5.31 2.34 7.62 2 10 C1.34 10 0.68 10 0 10 C0 6.7 0 3.4 0 0 Z " fill="#060D1C" transform="translate(265,673)"/>
<path d="M0 0 C2.52166467 0.45408127 5.04225816 0.9131407 7.5625 1.375 C8.61920898 1.56449219 8.61920898 1.56449219 9.69726562 1.7578125 C14.22714697 2.59281367 18.59030133 3.66723956 23 5 C23 6.98 23 8.96 23 11 C22.34 10.67 21.68 10.34 21 10 C21 8.68 21 7.36 21 6 C19.02 6 17.04 6 15 6 C15 5.34 15 4.68 15 4 C14.12988281 4.05220703 14.12988281 4.05220703 13.2421875 4.10546875 C7.990866 4.28744524 4.60488781 3.83377711 0 1 C0 0.67 0 0.34 0 0 Z " fill="#D5B673" transform="translate(791,428)"/>
<path d="M0 0 C0.99 0.66 1.98 1.32 3 2 C2.27247464 9.42075866 -0.32315356 13.35553016 -5 19 C-5.99 18.67 -6.98 18.34 -8 18 C-7.59007812 17.62230469 -7.18015625 17.24460937 -6.7578125 16.85546875 C-1.767685 11.75789831 -0.73231087 6.98220536 0 0 Z " fill="#E5C783" transform="translate(680,75)"/>
<path d="M0 0 C2.97 0 5.94 0 9 0 C9 0.33 9 0.66 9 1 C6.36 1 3.72 1 1 1 C1.33 2.32 1.66 3.64 2 5 C3.2375 4.9071875 3.2375 4.9071875 4.5 4.8125 C8.88193696 5.04724662 11.95495082 6.32618654 16 8 C15.67 8.66 15.34 9.32 15 10 C14.01 9.67 13.02 9.34 12 9 C9.13569136 8.69760965 6.27080066 8.49234231 3.3984375 8.28125 C1 8 1 8 0 7 C-0.04092937 4.66702567 -0.04241723 2.33294775 0 0 Z " fill="#E7CE94" transform="translate(661,62)"/>
<path d="M0 0 C0.66 0.66 1.32 1.32 2 2 C2.99 2 3.98 2 5 2 C5 2.99 5 3.98 5 5 C2 7.1875 2 7.1875 -1 9 C-1.28875 8.38125 -1.5775 7.7625 -1.875 7.125 C-2.93720042 4.86674235 -2.93720042 4.86674235 -5 3 C-3.35 2.01 -1.7 1.02 0 0 Z " fill="#1C2F44" transform="translate(555,177)"/>
<path d="M0 0 C2.475 0.495 2.475 0.495 5 1 C4.67 1.99 4.34 2.98 4 4 C5.65 4 7.3 4 9 4 C9.33 4.99 9.66 5.98 10 7 C6.7 7 3.4 7 0 7 C0 4.69 0 2.38 0 0 Z " fill="#212D3D" transform="translate(237,11)"/>
<path d="M0 0 C0 3 0 3 -1.35546875 4.4296875 C-2.26232422 5.14511719 -2.26232422 5.14511719 -3.1875 5.875 C-5.49249093 7.74403691 -7.54104097 9.55392289 -9.625 11.6875 C-11.94206507 13.94358967 -14.16825753 15.46276837 -17 17 C-15.47229036 13.24473608 -13.21377694 11.14969375 -10.1875 8.5 C-8.90939453 7.37078125 -8.90939453 7.37078125 -7.60546875 6.21875 C-5.10916671 4.09296356 -2.57272863 2.03231705 0 0 Z " fill="#A68542" transform="translate(544,209)"/>
<path d="M0 0 C0.66 0.33 1.32 0.66 2 1 C2 4.33333333 2 7.66666667 2 11 C2.33 11.99 2.66 12.98 3 14 C0.5625 13.1875 0.5625 13.1875 -2 12 C-3.15957207 8.52128379 -2.77456651 7.65780355 -1.5625 4.3125 C-1.13130859 3.10013672 -1.13130859 3.10013672 -0.69140625 1.86328125 C-0.46324219 1.24839844 -0.23507812 0.63351562 0 0 Z " fill="#192034" transform="translate(483,675)"/>
<path d="M0 0 C4.29 0.33 8.58 0.66 13 1 C13 1.99 13 2.98 13 4 C9.04 4 5.08 4 1 4 C0.67 2.68 0.34 1.36 0 0 Z " fill="#2F3345" transform="translate(691,682)"/>
<path d="M0 0 C2.64 0 5.28 0 8 0 C8.33 1.65 8.66 3.3 9 5 C6.03 5 3.06 5 0 5 C0 3.35 0 1.7 0 0 Z " fill="#A67B2A" transform="translate(649,433)"/>
<path d="M0 0 C0.6875 1.8125 0.6875 1.8125 1 4 C-0.1875 5.75 -0.1875 5.75 -2 7 C-6 7 -6 7 -8 6 C-6.24081631 1.94034532 -4.71412298 0 0 0 Z " fill="#142133" transform="translate(564,173)"/>
<path d="M0 0 C-0.76183594 0.24234375 -1.52367187 0.4846875 -2.30859375 0.734375 C-8.72493479 2.81708245 -14.904948 5.10638946 -21 8 C-21 6 -21 6 -19 4 C-17.67203709 3.64587656 -16.33783393 3.31478446 -15 3 C-13.65022151 2.36729133 -12.31647119 1.69937532 -11 1 C-4.04347826 -2.69565217 -4.04347826 -2.69565217 0 0 Z " fill="#C3A059" transform="translate(773,72)"/>
<path d="M0 0 C0.66 0 1.32 0 2 0 C2.66 1.65 3.32 3.3 4 5 C4.99 4.67 5.98 4.34 7 4 C7.061875 4.8353125 7.061875 4.8353125 7.125 5.6875 C8.43742507 9.15605198 11.16739671 10.69850982 14 13 C14.33 13.99 14.66 14.98 15 16 C12 16 12 16 9.84375 13.953125 C9.0703125 13.06109375 8.296875 12.1690625 7.5 11.25 C6.7265625 10.36828125 5.953125 9.4865625 5.15625 8.578125 C0 2.41304348 0 2.41304348 0 0 Z " fill="#A48141" transform="translate(608,335)"/>
<path d="M0 0 C0 4.22225848 -1.82726441 5.29347556 -4.75 8.25 C-5.63171875 9.16265625 -6.5134375 10.0753125 -7.421875 11.015625 C-10 13 -10 13 -12.328125 12.796875 C-12.87984375 12.53390625 -13.4315625 12.2709375 -14 12 C-12.41856529 10.56041153 -10.83477221 9.12341355 -9.25 7.6875 C-8.36828125 6.88699219 -7.4865625 6.08648437 -6.578125 5.26171875 C-4.44550672 3.39083089 -2.29812057 1.65915714 0 0 Z " fill="#B8984E" transform="translate(584,174)"/>
<path d="M0 0 C3 1 3 1 4 3 C4.039992 4.99960012 4.04346799 7.00047242 4 9 C3.01 9.495 3.01 9.495 2 10 C1.67 9.030625 1.34 8.06125 1 7.0625 C-0.60746443 3.89278582 -0.60746443 3.89278582 -2.98046875 3.37890625 C-4.97777644 3.14912749 -6.99059814 3.06588203 -9 3 C-9 2.67 -9 2.34 -9 2 C-6.03 2 -3.06 2 0 2 C0 1.34 0 0.68 0 0 Z " fill="#40495B" transform="translate(242,673)"/>
<path d="M0 0 C4.66132863 3.57729872 7.73911534 7.10867301 11 12 C6.90910906 12 5.55081513 10.30133052 2.5859375 7.66796875 C0.64924152 5.63109884 -0.28279118 3.70945555 -1 1 C-0.67 0.67 -0.34 0.34 0 0 Z " fill="#1E293A" transform="translate(550,287)"/>
<path d="M0 0 C0.66 0.33 1.32 0.66 2 1 C-2.69834783 5.91801085 -7.33507533 10.22338356 -13 14 C-12.34 12.35 -11.68 10.7 -11 9 C-10.34 9 -9.68 9 -9 9 C-8.67 8.01 -8.34 7.02 -8 6 C-7.34 6.33 -6.68 6.66 -6 7 C-5.7525 6.401875 -5.505 5.80375 -5.25 5.1875 C-3.83629988 2.71352479 -2.34944617 1.56629745 0 0 Z " fill="#C6A45D" transform="translate(656,162)"/>
<path d="M0 0 C0.33 0.66 0.66 1.32 1 2 C1.66 2 2.32 2 3 2 C7 8.75 7 8.75 7 11 C5.68 11 4.36 11 3 11 C0.84694043 7.14243493 -0.39253254 4.44870215 0 0 Z " fill="#212837" transform="translate(733,686)"/>
<path d="M0 0 C0.66 0.33 1.32 0.66 2 1 C1.01 4.96 0.02 8.92 -1 13 C-1.66 12.67 -2.32 12.34 -3 12 C-3 8.37 -3 4.74 -3 1 C-2.01 0.67 -1.02 0.34 0 0 Z " fill="#0E1525" transform="translate(352,678)"/>
<path d="M0 0 C0.33 0 0.66 0 1 0 C1 2.31 1 4.62 1 7 C3.31 7.33 5.62 7.66 8 8 C8 8.66 8 9.32 8 10 C5.69 10 3.38 10 1 10 C1 12.64 1 15.28 1 18 C0.67 18 0.34 18 0 18 C-0.83288874 11.74692761 -1.03863773 6.23182639 0 0 Z " fill="#3D4758" transform="translate(232,676)"/>
<path d="M0 0 C1 2 2 4 3 6 C-1.455 9.465 -1.455 9.465 -6 13 C-6 9.32965255 -4.9247108 7.9000569 -3 4.8125 C-2.443125 3.91144531 -1.88625 3.01039063 -1.3125 2.08203125 C-0.6628125 1.05142578 -0.6628125 1.05142578 0 0 Z " fill="#292E3C" transform="translate(170,330)"/>
<path d="M0 0 C0.66 0 1.32 0 2 0 C2.33 2.31 2.66 4.62 3 7 C5.64 7.33 8.28 7.66 11 8 C11 8.33 11 8.66 11 9 C7.04 9 3.08 9 -1 9 C-0.67 6.03 -0.34 3.06 0 0 Z " fill="#111A2C" transform="translate(469,687)"/>
<path d="M0 0 C1.1446875 0.3403125 1.1446875 0.3403125 2.3125 0.6875 C-1.80614955 4.40757056 -7.89486961 8.6875 -13.6875 8.6875 C-13.6875 8.0275 -13.6875 7.3675 -13.6875 6.6875 C-12.6975 6.6875 -11.7075 6.6875 -10.6875 6.6875 C-10.6875 6.0275 -10.6875 5.3675 -10.6875 4.6875 C-9.0375 4.6875 -7.3875 4.6875 -5.6875 4.6875 C-5.6875 4.0275 -5.6875 3.3675 -5.6875 2.6875 C-3.83710722 0.05799447 -3.27282212 -0.38056071 0 0 Z " fill="#8C7037" transform="translate(511.6875,287.3125)"/>
<path d="M0 0 C0.99 0.495 0.99 0.495 2 1 C2.40729228 3.32156597 2.74438677 5.6568787 3 8 C6.63 8.33 10.26 8.66 14 9 C14 9.33 14 9.66 14 10 C9.38 10 4.76 10 0 10 C0 6.7 0 3.4 0 0 Z " fill="#050E26" transform="translate(265,686)"/>
<path d="M0 0 C0.66 1.32 1.32 2.64 2 4 C0.38405168 6.04119788 -1.2856382 8.04072937 -3 10 C-3.66 10 -4.32 10 -5 10 C-4.49701212 5.59885603 -2.91227269 3.28804981 0 0 Z " fill="#A37F39" transform="translate(837,540)"/>
<path d="M0 0 C0.33 0 0.66 0 1 0 C1.24887295 2.10192697 1.4734719 4.20673964 1.6875 6.3125 C1.81511719 7.48425781 1.94273438 8.65601563 2.07421875 9.86328125 C2 13 2 13 0.64453125 14.91796875 C-1 16 -1 16 -3 16 C-2.5359375 14.824375 -2.5359375 14.824375 -2.0625 13.625 C-0.73664193 9.10148422 -0.35188915 4.68568186 0 0 Z " fill="#262F3F" transform="translate(124,580)"/>
<path d="M0 0 C0.66 0.33 1.32 0.66 2 1 C0.21427748 2.83947337 -1.57802449 4.67157741 -3.375 6.5 C-3.88289062 7.02464844 -4.39078125 7.54929688 -4.9140625 8.08984375 C-6.23832604 9.43153181 -7.61605865 10.71995815 -9 12 C-9.66 12 -10.32 12 -11 12 C-10 9 -10 9 -7.5625 7.0625 C-5.03855291 5.03103039 -4.35784834 3.81268585 -3 1 C-2.01 0.67 -1.02 0.34 0 0 Z " fill="#D2B46B" transform="translate(695,126)"/>
<path d="M0 0 C1.20628008 2.33214148 2.1654738 4.49642139 3 7 C1.92745123 9.51698632 0.45196548 11.66805545 -1 14 C-2.4552777 11.0894446 -1.63516661 9.04150948 -1.0625 5.875 C-0.77052734 4.23144531 -0.77052734 4.23144531 -0.47265625 2.5546875 C-0.31667969 1.71164062 -0.16070312 0.86859375 0 0 Z " fill="#B1975F" transform="translate(155,396)"/>
<path d="M0 0 C2.125 0.375 2.125 0.375 4 1 C2.75023244 4.65316671 2.32901247 5.78065836 -1 8 C-1.625 5.125 -1.625 5.125 -2 2 C-1.34 1.34 -0.68 0.68 0 0 Z " fill="#A07B2E" transform="translate(158,394)"/>
<path d="M0 0 C0 3 0 3 -1.5 5.0625 C-4.89485175 7.6935101 -7.80388195 8.16077639 -12 9 C-8.53005564 5.0963126 -4.44775994 2.63411025 0 0 Z " fill="#A68441" transform="translate(197,346)"/>
<path d="M0 0 C0.556875 0.66 1.11375 1.32 1.6875 2 C3.84062308 4.25492211 3.84062308 4.25492211 6.75 4.25 C7.4925 4.1675 8.235 4.085 9 4 C6.61879622 6.88250984 4.70129644 7.61038985 1 8 C0 7 0 7 -0.0625 3.4375 C-0.041875 2.303125 -0.02125 1.16875 0 0 Z " fill="#906F35" transform="translate(489,292)"/>
<path d="M0 0 C-0.33 0.99 -0.66 1.98 -1 3 C-1.66 3 -2.32 3 -3 3 C-3.33 3.66 -3.66 4.32 -4 5 C-6.13628438 7.54319569 -7.72921124 8.4360709 -11 9 C-9.55936614 4.67809842 -4.74032109 0 0 0 Z " fill="#A47E37" transform="translate(516,234)"/>
<path d="M0 0 C0.66 0 1.32 0 2 0 C4 3 4 3 3.625 5.1875 C3.41875 5.785625 3.2125 6.38375 3 7 C2.67 6.67 2.34 6.34 2 6 C1.67 7.98 1.34 9.96 1 12 C0.67 12 0.34 12 0 12 C-0.19401633 10.18818595 -0.38004375 8.37551468 -0.5625 6.5625 C-0.66691406 5.55316406 -0.77132813 4.54382813 -0.87890625 3.50390625 C-0.91886719 2.67761719 -0.95882813 1.85132813 -1 1 C-0.67 0.67 -0.34 0.34 0 0 Z " fill="#3F4759" transform="translate(369,676)"/>
<path d="M0 0 C3.59634744 3.49359465 6.83451967 7.11098131 10 11 C6.49411644 10.43601004 5.01017608 9.33036227 2.75 6.625 C2.22921875 6.01914062 1.7084375 5.41328125 1.171875 4.7890625 C0 3 0 3 0 0 Z " fill="#C2A55F" transform="translate(718,360)"/>
<path d="M0 0 C4.29 0 8.58 0 13 0 C13 0.99 13 1.98 13 3 C11.20759337 2.88610125 9.41605165 2.75852313 7.625 2.625 C6.12839844 2.52058594 6.12839844 2.52058594 4.6015625 2.4140625 C2 2 2 2 0 0 Z " fill="#0B101E" transform="translate(469,673)"/>
<path d="M0 0 C0.33 0.99 0.66 1.98 1 3 C0.50628906 3.33773437 0.01257813 3.67546875 -0.49609375 4.0234375 C-1.13675781 4.46945312 -1.77742187 4.91546875 -2.4375 5.375 C-3.07558594 5.81585937 -3.71367188 6.25671875 -4.37109375 6.7109375 C-6.13740928 7.92160853 -6.13740928 7.92160853 -7 10 C-7.66 10 -8.32 10 -9 10 C-7.61811547 6.78956118 -6.07578097 4.95063635 -3.375 2.75 C-2.74335937 2.22921875 -2.11171875 1.7084375 -1.4609375 1.171875 C-0.73777344 0.59179688 -0.73777344 0.59179688 0 0 Z " fill="#A68643" transform="translate(840,572)"/>
<path d="M0 0 C0.66 0 1.32 0 2 0 C2 0.66 2 1.32 2 2 C-0.5 4 -0.5 4 -3 6 C-4.75859065 7.93920267 -6.36877433 9.94931631 -8 12 C-8.66 11.67 -9.32 11.34 -10 11 C-8.38150935 9.16053461 -6.75581169 7.32848583 -5.125 5.5 C-4.66480469 4.97535156 -4.20460938 4.45070313 -3.73046875 3.91015625 C-2.52827924 2.56858245 -1.26754054 1.28000815 0 0 Z " fill="#A78643" transform="translate(540,536)"/>
<path d="M0 0 C4.97209562 1.76429199 9.43438061 4.3939166 14 7 C11.40927388 7.97226335 10.30300917 8.11611108 7.67578125 7.109375 C6.89589844 6.66078125 6.11601563 6.2121875 5.3125 5.75 C4.52488281 5.31171875 3.73726562 4.8734375 2.92578125 4.421875 C1 3 1 3 0 0 Z " fill="#D6B470" transform="translate(774,419)"/>
<path d="M0 0 C1.32 0.33 2.64 0.66 4 1 C4 1.99 4 2.98 4 4 C4.99 4.33 5.98 4.66 7 5 C7 5.66 7 6.32 7 7 C7.66 7 8.32 7 9 7 C8.67 8.32 8.34 9.64 8 11 C6.66375099 9.35653302 5.33107149 7.71016314 4 6.0625 C3.2575 5.14597656 2.515 4.22945313 1.75 3.28515625 C0 1 0 1 0 0 Z " fill="#A6803B" transform="translate(641,374)"/>
<path d="M0 0 C0 3 0 3 -2.125 5.6875 C-5 8 -5 8 -8.3125 8.3125 C-9.6428125 8.1578125 -9.6428125 8.1578125 -11 8 C-8.7398051 5.7398051 -6.44382086 4.51190284 -3.65625 3 C-1.82445698 1.9843552 -1.82445698 1.9843552 0 0 Z " fill="#AC8C4E" transform="translate(680,598)"/>
<path d="M0 0 C1.32 0.33 2.64 0.66 4 1 C0.04 4.465 0.04 4.465 -4 8 C-4.66 7.34 -5.32 6.68 -6 6 C-5.34 6 -4.68 6 -4 6 C-3.71125 5.38125 -3.4225 4.7625 -3.125 4.125 C-2 2 -2 2 0 0 Z " fill="#B5954C" transform="translate(613,200)"/>
<path d="M0 0 C1.98 0.99 1.98 0.99 4 2 C4 3.98 4 5.96 4 8 C3.01 8.495 3.01 8.495 2 9 C1.34 6.03 0.68 3.06 0 0 Z " fill="#111B2B" transform="translate(569,685)"/>
<path d="M0 0 C0.66 0.33 1.32 0.66 2 1 C1.67 3.31 1.34 5.62 1 8 C0.01 8.33 -0.98 8.66 -2 9 C-1.125 2.25 -1.125 2.25 0 0 Z " fill="#161C2A" transform="translate(738,676)"/>
<path d="M0 0 C0.33 0.99 0.66 1.98 1 3 C-2 5 -2 5 -5 5 C-5.33 5.66 -5.66 6.32 -6 7 C-6.33 6.34 -6.66 5.68 -7 5 C-2.25 0 -2.25 0 0 0 Z " fill="#212633" transform="translate(357,673)"/>
<path d="M0 0 C0.99 0 1.98 0 3 0 C1.92598892 2.91517292 1.22189824 4.77810176 -1 7 C-1.66 6.67 -2.32 6.34 -3 6 C-2.42655063 3.13275314 -2.1385485 2.1385485 0 0 Z " fill="#383C4B" transform="translate(332,672)"/>
<path d="M0 0 C0.99 0.33 1.98 0.66 3 1 C0.99020941 4.01468588 0.29263985 4.83789182 -3 6 C-5.1328125 5.546875 -5.1328125 5.546875 -7 5 C-5.90554162 4.13342884 -4.79902219 3.28207276 -3.6875 2.4375 C-3.07261719 1.96183594 -2.45773438 1.48617188 -1.82421875 0.99609375 C-1.22222656 0.66738281 -0.62023437 0.33867187 0 0 Z " fill="#162232" transform="translate(222,280)"/>
<path d="M0 0 C0 0.99 0 1.98 0 3 C-7.28571429 6.42857143 -7.28571429 6.42857143 -12 6 C-9.4347341 4.28982274 -7.12039035 3.09582189 -4.3125 1.875 C-3.50425781 1.52179688 -2.69601562 1.16859375 -1.86328125 0.8046875 C-1.24839844 0.53914063 -0.63351562 0.27359375 0 0 Z " fill="#AA8A4C" transform="translate(456,269)"/>
<path d="M0 0 C1.98362069 2.91708924 1.9876191 4.12380904 1.625 7.75 C1.41875 8.8225 1.2125 9.895 1 11 C0.34 10.67 -0.32 10.34 -1 10 C-1.125 3.375 -1.125 3.375 0 0 Z " fill="#212D3A" transform="translate(144,572)"/>
<path d="M0 0 C0.33 0.99 0.66 1.98 1 3 C-1.31 5.31 -3.62 7.62 -6 10 C-6.66 9.67 -7.32 9.34 -8 9 C-5.36 6.03 -2.72 3.06 0 0 Z " fill="#AC8B49" transform="translate(561,512)"/>
<path d="M0 0 C0.99 0 1.98 0 3 0 C2.40072174 3.35595828 1.15377564 5.37801226 -1 8 C-1.625 5.6875 -1.625 5.6875 -2 3 C-1.34 2.01 -0.68 1.02 0 0 Z " fill="#21283B" transform="translate(328,678)"/>
<path d="M0 0 C2.5625 2.1875 2.5625 2.1875 5 5 C4.8125 7.8125 4.8125 7.8125 4 10 C1.7448078 7.7448078 1.02276532 5.9952413 0 3 C0 2.01 0 1.02 0 0 Z " fill="#1F273A" transform="translate(357,542)"/>
<path d="M0 0 C0 0.66 0 1.32 0 2 C-3.3 2.66 -6.6 3.32 -10 4 C-10 3.34 -10 2.68 -10 2 C-3.375 -1.125 -3.375 -1.125 0 0 Z " fill="#172335" transform="translate(497,437)"/>
<path d="M0 0 C0 3 0 3 -1.9375 5 C-2.618125 5.66 -3.29875 6.32 -4 7 C-4.33 7.99 -4.66 8.98 -5 10 C-6.32 9.67 -7.64 9.34 -9 9 C-6.03 6.03 -3.06 3.06 0 0 Z " fill="#A58441" transform="translate(177,361)"/>
<path d="M0 0 C3.63094642 2.64960955 5.89851796 5.01824456 8 9 C7.401875 8.690625 6.80375 8.38125 6.1875 8.0625 C3.91043228 6.89790296 3.91043228 6.89790296 1 6 C0.67 4.02 0.34 2.04 0 0 Z " fill="#BF9D54" transform="translate(710,351)"/>
<path d="M0 0 C0.99 0.33 1.98 0.66 3 1 C3 2.65 3 4.3 3 6 C1.02 6.99 1.02 6.99 -1 8 C-0.67 5.36 -0.34 2.72 0 0 Z " fill="#474852" transform="translate(427,693)"/>
<path d="M0 0 C2.0625 0.4375 2.0625 0.4375 4 1 C2.515 4.465 2.515 4.465 1 8 C0.34 7.67 -0.32 7.34 -1 7 C-1.04254356 5.00045254 -1.04080783 2.99958364 -1 1 C-0.67 0.67 -0.34 0.34 0 0 Z " fill="#1F2839" transform="translate(663,674)"/>
<path d="M0 0 C0.99 0.33 1.98 0.66 3 1 C1.90220176 2.15193623 0.79650554 3.29634937 -0.3125 4.4375 C-0.92738281 5.07558594 -1.54226563 5.71367188 -2.17578125 6.37109375 C-4 8 -4 8 -7 9 C-7 8.34 -7 7.68 -7 7 C-6.34 7 -5.68 7 -5 7 C-4.67 6.01 -4.34 5.02 -4 4 C-2.70644173 2.62804426 -1.37701298 1.28817344 0 0 Z " fill="#D5B571" transform="translate(731,92)"/>
<path d="M0 0 C1.32 0.66 2.64 1.32 4 2 C-0.455 4.97 -0.455 4.97 -5 8 C-5 5 -5 5 -2.5 2.3125 C-1.675 1.549375 -0.85 0.78625 0 0 Z " fill="#D2B16A" transform="translate(741,83)"/>
<path d="M0 0 C4.8333472 -0.08333357 9.23692563 0.04738513 14 1 C14 1.33 14 1.66 14 2 C11.36 2.66 8.72 3.32 6 4 C5.67 3.34 5.34 2.68 5 2 C2.47266765 1.34444881 2.47266765 1.34444881 0 1 C0 0.67 0 0.34 0 0 Z " fill="#4E5765" transform="translate(437,11)"/>
<path d="M0 0 C1.98 0.99 3.96 1.98 6 3 C5.67 4.65 5.34 6.3 5 8 C3.5 6.6875 3.5 6.6875 2 5 C2 4.01 2 3.02 2 2 C1.34 2 0.68 2 0 2 C0 1.34 0 0.68 0 0 Z " fill="#AE9050" transform="translate(693,599)"/>
<path d="M0 0 C0.33 0.99 0.66 1.98 1 3 C-1 6 -1 6 -3.125 6.6875 C-3.74375 6.790625 -4.3625 6.89375 -5 7 C-5 6.01 -5 5.02 -5 4 C-2.5 1.8125 -2.5 1.8125 0 0 Z " fill="#1A2434" transform="translate(208,290)"/>
<path d="M0 0 C-0.33 0.99 -0.66 1.98 -1 3 C-4.49029418 4.47666292 -8.27436386 4.07164685 -12 4 C-12 3.67 -12 3.34 -12 3 C-10.906875 2.690625 -9.81375 2.38125 -8.6875 2.0625 C-1.52941176 0 -1.52941176 0 0 0 Z " fill="#0E152A" transform="translate(370,692)"/>
<path d="M0 0 C0.66 1.32 1.32 2.64 2 4 C1.34 4 0.68 4 0 4 C-0.33 4.66 -0.66 5.32 -1 6 C-1.33 5.34 -1.66 4.68 -2 4 C-4.32156597 3.59270772 -6.6568787 3.25561323 -9 3 C-9 2.67 -9 2.34 -9 2 C-6.94921875 1.77213542 -4.8984375 1.54427083 -2.84765625 1.31640625 C-0.98859771 1.18113386 -0.98859771 1.18113386 0 0 Z " fill="#47505D" transform="translate(735,682)"/>
<path d="M0 0 C2.97 0 5.94 0 9 0 C9 0.66 9 1.32 9 2 C6.36 2.33 3.72 2.66 1 3 C0.67 2.01 0.34 1.02 0 0 Z " fill="#131728" transform="translate(724,673)"/>
<path d="M0 0 C0.99 0.33 1.98 0.66 3 1 C1.37660195 2.70884005 -0.29319053 4.37446717 -2 6 C-2.66 6 -3.32 6 -4 6 C-3.67 4.68 -3.34 3.36 -3 2 C-2.01 2 -1.02 2 0 2 C0 1.34 0 0.68 0 0 Z " fill="#A27C35" transform="translate(175,379)"/>
<path d="M0 0 C0 0.66 0 1.32 0 2 C-2.60582371 2.93065133 -3.64198224 3.14917407 -6.25 2.0625 C-6.8275 1.711875 -7.405 1.36125 -8 1 C-5.23735711 0.40267181 -2.83967231 0 0 0 Z M-8 3 C-6.68 3.33 -5.36 3.66 -4 4 C-4.99 4.33 -5.98 4.66 -7 5 C-7.33 4.34 -7.66 3.68 -8 3 Z " fill="#232F42" transform="translate(387,254)"/>
<path d="M0 0 C0.8353125 0.37125 0.8353125 0.37125 1.6875 0.75 C-0.67218744 2.84749995 -1.85866994 3.71905704 -5.0625 3.9375 C-6.17625 3.8446875 -6.17625 3.8446875 -7.3125 3.75 C-2.88173077 -0.31153846 -2.88173077 -0.31153846 0 0 Z " fill="#16212C" transform="translate(542.3125,186.25)"/>
<path d="M0 0 C0.33 0.66 0.66 1.32 1 2 C0.67 2.66 0.34 3.32 0 4 C-1.65 4 -3.3 4 -5 4 C-5.33 3.01 -5.66 2.02 -6 1 C-4.02 0.67 -2.04 0.34 0 0 Z " fill="#545B68" transform="translate(480,682)"/>
<path d="M0 0 C0.66 0.33 1.32 0.66 2 1 C2 1.99 2 2.98 2 4 C-1.63 3.67 -5.26 3.34 -9 3 C-9 2.67 -9 2.34 -9 2 C-6.03 2 -3.06 2 0 2 C0 1.34 0 0.68 0 0 Z " fill="#4A525F" transform="translate(242,673)"/>
<path d="M0 0 C1.32 0.33 2.64 0.66 4 1 C4.33 2.32 4.66 3.64 5 5 C3.68 4.67 2.36 4.34 1 4 C0.67 2.68 0.34 1.36 0 0 Z " fill="#2D3340" transform="translate(315,672)"/>
<path d="M0 0 C-2.22189824 2.22189824 -4.08482708 2.92598892 -7 4 C-7.66 3.34 -8.32 2.68 -9 2 C-3.375 -1.125 -3.375 -1.125 0 0 Z " fill="#A68342" transform="translate(642,531)"/>
<path d="M0 0 C0.99 0 1.98 0 3 0 C2.60196439 2.88575819 2.20990931 3.82189513 -0.0625 5.75 C-0.701875 6.1625 -1.34125 6.575 -2 7 C-1.34 4.69 -0.68 2.38 0 0 Z " fill="#29364B" transform="translate(488,359)"/>
<path d="M0 0 C0.66 0 1.32 0 2 0 C3.7143618 1.95927063 5.38405168 3.95880212 7 6 C6.34 6.66 5.68 7.32 5 8 C0 2.25 0 2.25 0 0 Z " fill="#A17C35" transform="translate(616,344)"/>
<path d="M0 0 C0.66 0 1.32 0 2 0 C0.8141763 3.37503669 -0.27573689 5.64722731 -3 8 C-3.33 7.01 -3.66 6.02 -4 5 C-2.1875 2.3125 -2.1875 2.3125 0 0 Z " fill="#1B2939" transform="translate(179,318)"/>
<path d="M0 0 C1.875 0.1875 1.875 0.1875 4 1 C5.25 3.5625 5.25 3.5625 6 6 C3.37812506 4.95125002 2.20628639 4.35068687 0.75 1.875 C0.5025 1.25625 0.255 0.6375 0 0 Z " fill="#A17C35" transform="translate(574,295)"/>
<path d="M0 0 C0.598125 0.350625 1.19625 0.70125 1.8125 1.0625 C1.1525 1.7225 0.4925 2.3825 -0.1875 3.0625 C-3.3125 2.6875 -3.3125 2.6875 -6.1875 2.0625 C-4.66896708 -0.97456585 -3.05066334 -1.30742714 0 0 Z " fill="#26292A" transform="translate(541.1875,275.9375)"/>
</svg>
